<svg width="57" height="19" viewBox="0 0 57 19" fill="none" xmlns="http://www.w3.org/2000/svg">
<path d="M0 18.2691V0.553609H10.6916V2.45664H2.14524V8.44254H10.138V10.3456H2.14524V16.3661H10.83V18.2691H0Z" fill="#18191B"/>
<path d="M14.2814 18.2691V4.98248H16.2536V7.05852H16.4266C16.7034 6.3492 17.1503 5.79848 17.7674 5.40634C18.3844 5.00843 19.1255 4.80948 19.9905 4.80948C20.867 4.80948 21.5965 5.00843 22.179 5.40634C22.7672 5.79848 23.2256 6.3492 23.5543 7.05852H23.6927C24.033 6.37227 24.5433 5.82731 25.2238 5.42364C25.9043 5.0142 26.7203 4.80948 27.6718 4.80948C28.8598 4.80948 29.8315 5.18144 30.5869 5.92535C31.3424 6.66349 31.7201 7.81396 31.7201 9.37675V18.2691H29.6786V9.37675C29.6786 8.3964 29.4105 7.69574 28.8742 7.27477C28.3379 6.8538 27.7064 6.64331 26.9798 6.64331C26.0456 6.64331 25.3219 6.92588 24.8086 7.49102C24.2954 8.0504 24.0387 8.75971 24.0387 9.61896V18.2691H21.9627V9.16915C21.9627 8.4137 21.7176 7.80531 21.2275 7.34397C20.7373 6.87686 20.1058 6.64331 19.3331 6.64331C18.8025 6.64331 18.3066 6.78459 17.8452 7.06717C17.3897 7.34974 17.0206 7.74188 16.738 8.24359C16.4612 8.73953 16.3228 9.31332 16.3228 9.96496V18.2691H14.2814Z" fill="#18191B"/>
<path d="M39.3625 18.5805C38.5205 18.5805 37.7564 18.4219 37.0702 18.1047C36.3839 17.7818 35.839 17.3176 35.4353 16.7121C35.0316 16.1008 34.8298 15.3627 34.8298 14.4976C34.8298 13.7364 34.9797 13.1194 35.2796 12.6465C35.5795 12.1679 35.9803 11.793 36.482 11.522C36.9837 11.251 37.5373 11.0491 38.1428 10.9165C38.7541 10.7781 39.3682 10.6685 39.9853 10.5878C40.7926 10.484 41.4472 10.4061 41.9489 10.3542C42.4563 10.2966 42.8254 10.2014 43.0561 10.0688C43.2925 9.93613 43.4107 9.70546 43.4107 9.37675V9.30755C43.4107 8.45407 43.1772 7.79089 42.7101 7.31802C42.2487 6.84515 41.5481 6.60871 40.6081 6.60871C39.6335 6.60871 38.8694 6.82208 38.3158 7.24882C37.7622 7.67556 37.3729 8.13113 37.148 8.61554L35.2104 7.92353C35.5564 7.11618 36.0178 6.48761 36.5944 6.0378C37.1769 5.58223 37.8112 5.26505 38.4975 5.08628C39.1895 4.90175 39.8699 4.80948 40.5389 4.80948C40.9656 4.80948 41.4558 4.86138 42.0094 4.96518C42.5688 5.06322 43.108 5.26794 43.627 5.57934C44.1518 5.89075 44.5872 6.36074 44.9332 6.98932C45.2792 7.61789 45.4522 8.45984 45.4522 9.51516V18.2691H43.4107V16.4699H43.3069C43.1685 16.7582 42.9379 17.0667 42.6149 17.3954C42.292 17.7241 41.8624 18.0038 41.3261 18.2345C40.7897 18.4652 40.1352 18.5805 39.3625 18.5805ZM39.6739 16.7467C40.4812 16.7467 41.1617 16.5881 41.7153 16.2709C42.2747 15.9537 42.6957 15.5443 42.9782 15.0426C43.2666 14.5409 43.4107 14.0132 43.4107 13.4596V11.5912C43.3242 11.695 43.1339 11.7901 42.8398 11.8766C42.5515 11.9574 42.217 12.0295 41.8364 12.0929C41.4616 12.1506 41.0954 12.2025 40.7378 12.2486C40.3861 12.289 40.1006 12.3236 39.8815 12.3524C39.3509 12.4216 38.855 12.5341 38.3937 12.6898C37.9381 12.8397 37.569 13.0675 37.2864 13.3731C37.0096 13.673 36.8712 14.0824 36.8712 14.6014C36.8712 15.3108 37.1336 15.8471 37.6584 16.2104C38.1889 16.5679 38.8608 16.7467 39.6739 16.7467Z" fill="#18191B"/>
<path d="M49.1782 18.2691V4.98248H51.2197V18.2691H49.1782ZM50.2162 2.76805C49.8183 2.76805 49.4752 2.63253 49.1869 2.36149C48.9043 2.09045 48.763 1.76463 48.763 1.38402C48.763 1.00342 48.9043 0.677594 49.1869 0.406556C49.4752 0.135519 49.8183 0 50.2162 0C50.6141 0 50.9544 0.135519 51.237 0.406556C51.5253 0.677594 51.6695 1.00342 51.6695 1.38402C51.6695 1.76463 51.5253 2.09045 51.237 2.36149C50.9544 2.63253 50.6141 2.76805 50.2162 2.76805Z" fill="#18191B"/>
<path d="M57.0001 0.553609V18.2691H54.9587V0.553609H57.0001Z" fill="#18191B"/>
</svg>
