<svg width="96" height="12" viewBox="0 0 96 12" fill="none" xmlns="http://www.w3.org/2000/svg">
<path d="M4.06057 11.9998C3.20131 11.9998 2.46942 11.7659 1.8649 11.2983C1.26037 10.8268 0.798427 10.1444 0.479056 9.25088C0.159685 8.3536 0 7.27002 0 6.00014C0 4.73787 0.159685 3.65999 0.479056 2.76651C0.802229 1.86923 1.26608 1.18487 1.8706 0.713416C2.47893 0.238162 3.20892 0.000534634 4.06057 0.000534634C4.91223 0.000534634 5.64032 0.238162 6.24484 0.713416C6.85317 1.18487 7.31702 1.86923 7.63639 2.76651C7.95956 3.65999 8.12115 4.73787 8.12115 6.00014C8.12115 7.27002 7.96146 8.3536 7.64209 9.25088C7.32272 10.1444 6.86077 10.8268 6.25625 11.2983C5.65172 11.7659 4.91983 11.9998 4.06057 11.9998ZM4.06057 10.7451C4.91223 10.7451 5.57378 10.3345 6.04523 9.51322C6.51669 8.69199 6.75241 7.52096 6.75241 6.00014C6.75241 4.9888 6.64406 4.12764 6.42734 3.41666C6.21443 2.70568 5.90646 2.16389 5.50344 1.79129C5.10423 1.41869 4.62327 1.23239 4.06057 1.23239C3.21652 1.23239 2.55687 1.64872 2.08161 2.48136C1.60636 3.31021 1.36873 4.48313 1.36873 6.00014C1.36873 7.01149 1.47519 7.87075 1.6881 8.57792C1.90102 9.2851 2.20708 9.82309 2.60629 10.1919C3.00931 10.5607 3.49407 10.7451 4.06057 10.7451Z" fill="#18191B"/>
<path d="M13.9383 11.9998C13.2691 11.9998 12.6665 11.8667 12.1304 11.6005C11.5943 11.3344 11.1647 10.9694 10.8415 10.5056C10.5183 10.0417 10.3415 9.51323 10.3111 8.92011H11.6798C11.7331 9.44859 11.9726 9.88582 12.3984 10.2318C12.8281 10.574 13.3413 10.7451 13.9383 10.7451C14.4173 10.7451 14.8431 10.6329 15.2157 10.4086C15.5921 10.1843 15.8868 9.87632 16.0997 9.48471C16.3164 9.0893 16.4248 8.64256 16.4248 8.14449C16.4248 7.63502 16.3126 7.18068 16.0883 6.78146C15.8678 6.37845 15.5636 6.06098 15.1758 5.82905C14.788 5.59713 14.3451 5.47927 13.847 5.47546C13.4896 5.47166 13.1227 5.52679 12.7463 5.64085C12.3699 5.75111 12.0601 5.89369 11.8167 6.06858L10.4936 5.9089L11.2008 0.16022H17.2688V1.41489H12.387L11.9764 4.85953H12.0448C12.2844 4.66943 12.5847 4.51165 12.9459 4.38618C13.3071 4.26071 13.6835 4.19798 14.0751 4.19798C14.7899 4.19798 15.4268 4.36907 15.9857 4.71125C16.5484 5.04964 16.9894 5.51348 17.3088 6.1028C17.6319 6.69211 17.7935 7.36507 17.7935 8.12168C17.7935 8.86688 17.6262 9.53223 17.2917 10.1177C16.9609 10.6995 16.5046 11.1595 15.9229 11.4979C15.3412 11.8325 14.6797 11.9998 13.9383 11.9998Z" fill="#18191B"/>
<path d="M23.709 11.9998C23.0399 11.9998 22.4372 11.8667 21.9011 11.6005C21.3651 11.3344 20.9354 10.9694 20.6123 10.5056C20.2891 10.0417 20.1123 9.51323 20.0819 8.92011H21.4506C21.5038 9.44859 21.7434 9.88582 22.1692 10.2318C22.5988 10.574 23.1121 10.7451 23.709 10.7451C24.1881 10.7451 24.6139 10.6329 24.9865 10.4086C25.3629 10.1843 25.6576 9.87632 25.8705 9.48471C26.0872 9.0893 26.1955 8.64256 26.1955 8.14449C26.1955 7.63502 26.0834 7.18068 25.8591 6.78146C25.6385 6.37845 25.3344 6.06098 24.9466 5.82905C24.5588 5.59713 24.1158 5.47927 23.6178 5.47546C23.2604 5.47166 22.8935 5.52679 22.5171 5.64085C22.1407 5.75111 21.8308 5.89369 21.5875 6.06858L20.2644 5.9089L20.9715 0.16022H27.0396V1.41489H22.1578L21.7472 4.85953H21.8156C22.0551 4.66943 22.3555 4.51165 22.7167 4.38618C23.0779 4.26071 23.4543 4.19798 23.8459 4.19798C24.5607 4.19798 25.1975 4.36907 25.7564 4.71125C26.3191 5.04964 26.7601 5.51348 27.0795 6.1028C27.4027 6.69211 27.5643 7.36507 27.5643 8.12168C27.5643 8.86688 27.397 9.53223 27.0624 10.1177C26.7316 10.6995 26.2754 11.1595 25.6937 11.4979C25.112 11.8325 24.4504 11.9998 23.709 11.9998Z" fill="#18191B"/>
<path d="M30.1948 11.8401L35.4188 1.50614V1.41489H29.3964V0.16022H36.8788V1.48333L31.6776 11.8401H30.1948Z" fill="#18191B"/>
<path d="M42.5105 11.9998C41.7273 11.9998 41.0354 11.861 40.4346 11.5834C39.8377 11.3021 39.372 10.9162 39.0374 10.4257C38.7028 9.93145 38.5374 9.36875 38.5412 8.73761C38.5374 8.24335 38.6344 7.7871 38.8321 7.36888C39.0298 6.94685 39.2997 6.59516 39.6419 6.31381C39.9879 6.02866 40.3738 5.84806 40.7996 5.77202V5.70359C40.2407 5.55911 39.7959 5.24544 39.4651 4.76258C39.1343 4.27592 38.9709 3.72273 38.9747 3.10299C38.9709 2.50988 39.121 1.97949 39.4252 1.51184C39.7294 1.04419 40.1476 0.675396 40.6799 0.405451C41.216 0.135507 41.8262 0.000534634 42.5105 0.000534634C43.1873 0.000534634 43.7918 0.135507 44.3241 0.405451C44.8564 0.675396 45.2746 1.04419 45.5788 1.51184C45.8868 1.97949 46.0426 2.50988 46.0464 3.10299C46.0426 3.72273 45.8734 4.27592 45.5389 4.76258C45.2081 5.24544 44.769 5.55911 44.2215 5.70359V5.77202C44.6435 5.84806 45.0237 6.02866 45.3621 6.31381C45.7005 6.59516 45.9704 6.94685 46.1719 7.36888C46.3734 7.7871 46.4761 8.24335 46.4799 8.73761C46.4761 9.36875 46.305 9.93145 45.9666 10.4257C45.632 10.9162 45.1663 11.3021 44.5693 11.5834C43.9762 11.861 43.29 11.9998 42.5105 11.9998ZM42.5105 10.7451C43.039 10.7451 43.4953 10.6595 43.8793 10.4884C44.2633 10.3174 44.5598 10.0759 44.769 9.76416C44.9781 9.45239 45.0845 9.0874 45.0883 8.66917C45.0845 8.22814 44.9705 7.83843 44.7461 7.50005C44.5218 7.16167 44.2158 6.89552 43.828 6.70162C43.4439 6.50772 43.0048 6.41076 42.5105 6.41076C42.0125 6.41076 41.5676 6.50772 41.176 6.70162C40.7882 6.89552 40.4822 7.16167 40.2578 7.50005C40.0373 7.83843 39.929 8.22814 39.9328 8.66917C39.929 9.0874 40.0297 9.45239 40.235 9.76416C40.4441 10.0759 40.7426 10.3174 41.1304 10.4884C41.5182 10.6595 41.9783 10.7451 42.5105 10.7451ZM42.5105 5.20172C42.9288 5.20172 43.2995 5.11807 43.6226 4.95078C43.9496 4.78349 44.2063 4.54967 44.3926 4.24931C44.5789 3.94895 44.6739 3.59726 44.6777 3.19424C44.6739 2.79883 44.5808 2.45475 44.3983 2.16199C44.2158 1.86543 43.9629 1.63731 43.6398 1.47762C43.3166 1.31414 42.9402 1.23239 42.5105 1.23239C42.0733 1.23239 41.6912 1.31414 41.3642 1.47762C41.0373 1.63731 40.7844 1.86543 40.6057 2.16199C40.427 2.45475 40.3396 2.79883 40.3434 3.19424C40.3396 3.59726 40.4289 3.94895 40.6114 4.24931C40.7977 4.54967 41.0544 4.78349 41.3813 4.95078C41.7083 5.11807 42.0847 5.20172 42.5105 5.20172Z" fill="#18191B"/>
<path d="M49.0306 11.8401L54.2546 1.50614V1.41489H48.2321V0.16022H55.7145V1.48333L50.5134 11.8401H49.0306Z" fill="#18191B"/>
<path d="M61.4675 11.9998C60.9884 11.9922 60.5094 11.9009 60.0303 11.726C59.5513 11.5511 59.114 11.2565 58.7186 10.842C58.3232 10.4238 58.0057 9.85921 57.7662 9.14823C57.5267 8.43345 57.4069 7.53617 57.4069 6.45639C57.4069 5.42224 57.5039 4.50595 57.6978 3.70752C57.8917 2.90529 58.173 2.23043 58.5418 1.68294C58.9106 1.13164 59.3555 0.713416 59.8763 0.428263C60.401 0.143111 60.9922 0.000534634 61.65 0.000534634C62.3039 0.000534634 62.8857 0.131705 63.3951 0.394046C63.9084 0.652584 64.3266 1.01378 64.6498 1.47762C64.973 1.94147 65.1821 2.47566 65.2771 3.08018H63.8856C63.7563 2.5555 63.5054 2.12017 63.1328 1.77418C62.7602 1.4282 62.2659 1.25521 61.65 1.25521C60.7451 1.25521 60.0322 1.64872 59.5113 2.43574C58.9943 3.22276 58.7338 4.32725 58.73 5.74921H58.8213C59.0342 5.42604 59.287 5.15039 59.5798 4.92227C59.8763 4.69034 60.2033 4.51165 60.5607 4.38618C60.9181 4.26071 61.2964 4.19798 61.6956 4.19798C62.3648 4.19798 62.9769 4.36527 63.532 4.69985C64.0871 5.03063 64.5319 5.48877 64.8665 6.07428C65.2011 6.656 65.3684 7.32325 65.3684 8.07606C65.3684 8.79844 65.2068 9.46 64.8836 10.0607C64.5604 10.6576 64.1061 11.1329 63.5206 11.4865C62.9389 11.8363 62.2545 12.0074 61.4675 11.9998ZM61.4675 10.7451C61.9465 10.7451 62.3762 10.6253 62.7564 10.3858C63.1404 10.1463 63.4426 9.82499 63.6632 9.42198C63.8875 9.01896 63.9996 8.57032 63.9996 8.07606C63.9996 7.5932 63.8913 7.15406 63.6746 6.75865C63.4617 6.35944 63.167 6.04197 62.7906 5.80624C62.418 5.57051 61.9922 5.45265 61.5131 5.45265C61.1519 5.45265 60.8154 5.52489 60.5037 5.66937C60.1919 5.81004 59.9182 6.00395 59.6824 6.25108C59.4505 6.49821 59.268 6.78146 59.1349 7.10083C59.0019 7.4164 58.9353 7.74908 58.9353 8.09887C58.9353 8.56272 59.0437 8.99615 59.2604 9.39916C59.4809 9.80218 59.7813 10.1273 60.1615 10.3744C60.5455 10.6215 60.9808 10.7451 61.4675 10.7451Z" fill="#18191B"/>
<path d="M71.3295 0.000534634C71.8085 0.00433678 72.2876 0.0955855 72.7667 0.274281C73.2457 0.452977 73.683 0.749536 74.0784 1.16396C74.4738 1.57458 74.7912 2.13538 75.0308 2.84636C75.2703 3.55734 75.3901 4.44892 75.3901 5.52109C75.3901 6.55904 75.2912 7.48104 75.0935 8.28707C74.8996 9.0893 74.6183 9.76606 74.2495 10.3174C73.8845 10.8686 73.4396 11.2869 72.9149 11.572C72.3941 11.8572 71.8047 11.9998 71.147 11.9998C70.493 11.9998 69.9094 11.8705 69.3962 11.6119C68.8867 11.3496 68.4685 10.9865 68.1415 10.5227C67.8183 10.055 67.6111 9.51323 67.5199 8.8973H68.9114C69.0369 9.43338 69.2859 9.87632 69.6585 10.2261C70.0349 10.5721 70.5311 10.7451 71.147 10.7451C72.0481 10.7451 72.7591 10.3516 73.2799 9.56455C73.8046 8.77753 74.067 7.66544 74.067 6.22827H73.9757C73.7628 6.54764 73.51 6.82328 73.2172 7.05521C72.9244 7.28713 72.5994 7.46583 72.242 7.5913C71.8846 7.71676 71.5044 7.7795 71.1014 7.7795C70.4322 7.7795 69.8182 7.61411 69.2593 7.28333C68.7042 6.94875 68.2594 6.49061 67.9248 5.9089C67.594 5.32338 67.4286 4.65422 67.4286 3.90142C67.4286 3.18664 67.5883 2.53269 67.9077 1.93957C68.2308 1.34265 68.6833 0.867399 69.265 0.51381C69.8505 0.16022 70.5387 -0.0108712 71.3295 0.000534634ZM71.3295 1.25521C70.8504 1.25521 70.4189 1.37497 70.0349 1.6145C69.6547 1.85022 69.3524 2.16959 69.1281 2.57261C68.9076 2.97182 68.7973 3.41476 68.7973 3.90142C68.7973 4.38808 68.9038 4.83102 69.1167 5.23023C69.3334 5.62564 69.6281 5.94121 70.0007 6.17694C70.3771 6.40886 70.8048 6.52483 71.2839 6.52483C71.6451 6.52483 71.9815 6.45449 72.2933 6.31381C72.6051 6.16934 72.8769 5.97353 73.1088 5.7264C73.3446 5.47546 73.529 5.19221 73.662 4.87664C73.7951 4.55727 73.8616 4.22459 73.8616 3.87861C73.8616 3.42237 73.7514 2.99464 73.5309 2.59542C73.3142 2.19621 73.0138 1.87304 72.6298 1.6259C72.2496 1.37877 71.8161 1.25521 71.3295 1.25521Z" fill="#18191B"/>
<path d="M77.359 9.44479V8.28136L82.4918 0.16022H83.3358V1.96238H82.7655L78.8875 8.09887V8.19012H85.7996V9.44479H77.359ZM82.8568 11.8401V9.0912V8.54941V0.16022H84.2027V11.8401H82.8568Z" fill="#18191B"/>
<path d="M91.8149 11.9998C91.3358 11.9922 90.8567 11.9009 90.3777 11.726C89.8986 11.5511 89.4614 11.2565 89.066 10.842C88.6706 10.4238 88.3531 9.85921 88.1136 9.14823C87.874 8.43345 87.7543 7.53617 87.7543 6.45639C87.7543 5.42224 87.8512 4.50595 88.0451 3.70752C88.239 2.90529 88.5204 2.23043 88.8892 1.68294C89.258 1.13164 89.7028 0.713416 90.2237 0.428263C90.7484 0.143111 91.3396 0.000534634 91.9974 0.000534634C92.6513 0.000534634 93.233 0.131705 93.7425 0.394046C94.2558 0.652584 94.674 1.01378 94.9972 1.47762C95.3203 1.94147 95.5294 2.47566 95.6245 3.08018H94.2329C94.1037 2.5555 93.8527 2.12017 93.4801 1.77418C93.1075 1.4282 92.6133 1.25521 91.9974 1.25521C91.0925 1.25521 90.3796 1.64872 89.8587 2.43574C89.3416 3.22276 89.0812 4.32725 89.0774 5.74921H89.1686C89.3815 5.42604 89.6344 5.15039 89.9271 4.92227C90.2237 4.69034 90.5507 4.51165 90.9081 4.38618C91.2655 4.26071 91.6438 4.19798 92.043 4.19798C92.7121 4.19798 93.3243 4.36527 93.8794 4.69985C94.4345 5.03063 94.8793 5.48877 95.2139 6.07428C95.5485 6.656 95.7157 7.32325 95.7157 8.07606C95.7157 8.79844 95.5541 9.46 95.231 10.0607C94.9078 10.6576 94.4535 11.1329 93.868 11.4865C93.2862 11.8363 92.6019 12.0074 91.8149 11.9998ZM91.8149 10.7451C92.2939 10.7451 92.7235 10.6253 93.1037 10.3858C93.4877 10.1463 93.79 9.82499 94.0105 9.42198C94.2349 9.01896 94.347 8.57032 94.347 8.07606C94.347 7.5932 94.2387 7.15406 94.0219 6.75865C93.809 6.35944 93.5144 6.04197 93.138 5.80624C92.7654 5.57051 92.3395 5.45265 91.8605 5.45265C91.4993 5.45265 91.1628 5.52489 90.851 5.66937C90.5393 5.81004 90.2655 6.00395 90.0298 6.25108C89.7979 6.49821 89.6154 6.78146 89.4823 7.10083C89.3492 7.4164 89.2827 7.74908 89.2827 8.09887C89.2827 8.56272 89.3911 8.99615 89.6078 9.39916C89.8283 9.80218 90.1287 10.1273 90.5089 10.3744C90.8929 10.6215 91.3282 10.7451 91.8149 10.7451Z" fill="#18191B"/>
</svg>
