<svg width="25" height="25" viewBox="0 0 25 25" fill="none" xmlns="http://www.w3.org/2000/svg">
<path fill-rule="evenodd" clip-rule="evenodd" d="M14.5833 7C13.2267 7 12.2083 8.01838 12.2083 9.375V13.5625H10.125V14.6667H12.2083V22.1667H13.8333V14.5625H16.5351L16.7676 13.4583H13.8333V9.6875C13.8333 9.46772 13.8888 9.16514 14.1311 8.92279C14.3735 8.68045 14.6761 8.625 14.8958 8.625H16.9583V7H14.5833ZM10.7083 9.375C10.7083 7.18995 12.3983 5.5 14.5833 5.5H17.3958C17.6156 5.5 17.9182 5.55545 18.1605 5.7978C18.4029 6.04014 18.4583 6.34273 18.4583 6.5625V9.0625C18.4583 9.28227 18.4029 9.58486 18.1605 9.8272C17.9182 10.0695 17.6156 10.125 17.3958 10.125H15.3333V11.9583H17.2917C17.6868 11.9583 17.9828 12.1715 18.1501 12.4225C18.3026 12.6513 18.3542 12.9096 18.3542 13.125V13.2031L17.9294 15.2206C17.8991 15.4369 17.7903 15.5908 17.7201 15.6719C17.6314 15.7742 17.5327 15.8446 17.4562 15.8905C17.3246 15.9695 17.1115 16.0625 16.875 16.0625H15.3333V23.6667H10.7083V16.1667H9.6875C9.46772 16.1667 9.16514 16.1112 8.92279 15.8689C8.68045 15.6265 8.625 15.3239 8.625 15.1042V13.125C8.625 12.9052 8.68045 12.6026 8.92279 12.3603C9.16514 12.118 9.46772 12.0625 9.6875 12.0625H10.7083V9.375Z" fill="white"/>
<path fill-rule="evenodd" clip-rule="evenodd" d="M4.30605 4.30605C3.34364 5.26845 2.83301 6.84448 2.83301 9.37467V15.6247C2.83301 18.1549 3.34364 19.7309 4.30605 20.6933C5.26845 21.6557 6.84448 22.1663 9.37467 22.1663H15.6247C18.1549 22.1663 19.7309 21.6557 20.6933 20.6933C21.6557 19.7309 22.1663 18.1549 22.1663 15.6247V9.37467C22.1663 6.84448 21.6557 5.26845 20.6933 4.30605C19.7309 3.34364 18.1549 2.83301 15.6247 2.83301H9.37467C6.84448 2.83301 5.26845 3.34364 4.30605 4.30605ZM3.24539 3.24539C4.62673 1.86404 6.69654 1.33301 9.37467 1.33301H15.6247C18.3028 1.33301 20.3726 1.86404 21.754 3.24539C23.1353 4.62673 23.6663 6.69654 23.6663 9.37467V15.6247C23.6663 18.3028 23.1353 20.3726 21.754 21.754C20.3726 23.1353 18.3028 23.6663 15.6247 23.6663H9.37467C6.69654 23.6663 4.62673 23.1353 3.24539 21.754C1.86404 20.3726 1.33301 18.3028 1.33301 15.6247V9.37467C1.33301 6.69654 1.86404 4.62673 3.24539 3.24539Z" fill="white"/>
</svg>
