<svg width="20" height="15" viewBox="0 0 20 15" fill="none" xmlns="http://www.w3.org/2000/svg">
<path d="M0.328254 6.70412C0.117469 6.91582 -0.000603 7.20258 2.58993e-06 7.50132C0.000608179 7.80007 0.119842 8.08634 0.331483 8.29719L6.71783 14.6577C6.82198 14.7651 6.94647 14.8507 7.08404 14.9094C7.22162 14.9682 7.36952 14.999 7.51912 15C7.66871 15.001 7.81701 14.9722 7.95536 14.9152C8.0937 14.8583 8.21933 14.7744 8.32489 14.6684C8.43046 14.5624 8.51387 14.4364 8.57023 14.2979C8.6266 14.1593 8.65481 14.0109 8.6532 13.8613C8.6516 13.7117 8.62022 13.5639 8.5609 13.4266C8.50157 13.2892 8.41549 13.1651 8.30767 13.0614L3.84841 8.62017L18.7686 8.58992C19.0674 8.58932 19.3537 8.47004 19.5645 8.25832C19.7754 8.04661 19.8935 7.7598 19.8929 7.461C19.8923 7.16219 19.773 6.87587 19.5613 6.66501C19.3496 6.45415 19.0628 6.33603 18.764 6.33664L3.84384 6.36688L8.28506 1.90762C8.48986 1.69471 8.60284 1.40989 8.59968 1.11449C8.59651 0.819096 8.47745 0.53676 8.26814 0.328294C8.05882 0.119828 7.77601 0.00191276 7.4806 -5.52068e-05C7.18519 -0.00202417 6.90083 0.112112 6.68876 0.31777L0.328254 6.70412Z" fill="#6A11FC"/>
</svg>
