<svg width="20" height="15" viewBox="0 0 20 15" fill="none" xmlns="http://www.w3.org/2000/svg">
<path d="M0.331563 6.67416C0.119897 6.88497 0.000627677 7.17123 -1.76814e-05 7.46997C-0.000663039 7.76871 0.117369 8.05547 0.328122 8.2672L6.68767 14.6543C6.79136 14.7621 6.9155 14.8482 7.05282 14.9076C7.19015 14.9669 7.33791 14.9983 7.4875 14.9999C7.63709 15.0015 7.78551 14.9734 7.92409 14.917C8.06267 14.8607 8.18864 14.7773 8.29465 14.6717C8.40066 14.5662 8.48459 14.4406 8.54153 14.3022C8.59848 14.1639 8.62731 14.0156 8.62633 13.866C8.62535 13.7164 8.59459 13.5685 8.53585 13.4309C8.4771 13.2933 8.39154 13.1688 8.28416 13.0647L3.8436 8.6049L18.7635 8.63713C19.0623 8.63778 19.3491 8.5197 19.5608 8.30887C19.7726 8.09804 19.8919 7.81174 19.8925 7.51294C19.8932 7.21414 19.7751 6.92732 19.5643 6.71558C19.3535 6.50384 19.0672 6.38453 18.7684 6.38388L3.84847 6.35165L8.30825 1.9111C8.51393 1.69906 8.62811 1.41472 8.62618 1.11931C8.62425 0.82391 8.50637 0.541082 8.29794 0.331746C8.08951 0.122409 7.80719 0.00331181 7.5118 0.000106933C7.21641 -0.00309893 6.93157 0.109844 6.71865 0.314608L0.331563 6.67416Z" fill="#6A11FC"/>
</svg>
