<svg width="15" height="15" viewBox="0 0 15 15" fill="none" xmlns="http://www.w3.org/2000/svg">
<path d="M7.5 7.5C7.84375 7.5 8.13812 7.3775 8.38313 7.1325C8.62813 6.8875 8.75042 6.59333 8.75 6.25C8.75 5.90625 8.6275 5.61188 8.3825 5.36687C8.1375 5.12188 7.84333 4.99958 7.5 5C7.15625 5 6.86188 5.1225 6.61687 5.3675C6.37188 5.6125 6.24958 5.90667 6.25 6.25C6.25 6.59375 6.3725 6.88812 6.6175 7.13313C6.8625 7.37813 7.15667 7.50042 7.5 7.5ZM7.5 12.0938C8.77083 10.9271 9.71354 9.86708 10.3281 8.91375C10.9427 7.96042 11.25 7.11417 11.25 6.375C11.25 5.23958 10.8879 4.31 10.1637 3.58625C9.43958 2.8625 8.55167 2.50042 7.5 2.5C6.44792 2.5 5.55979 2.86208 4.83562 3.58625C4.11146 4.31042 3.74958 5.24 3.75 6.375C3.75 7.11458 4.05729 7.96104 4.67188 8.91437C5.28646 9.86771 6.22917 10.9275 7.5 12.0938ZM7.5 13.5156C7.41667 13.5156 7.33333 13.5 7.25 13.4688C7.16667 13.4375 7.09375 13.3958 7.03125 13.3438C5.51042 12 4.375 10.7525 3.625 9.60125C2.875 8.45 2.5 7.37458 2.5 6.375C2.5 4.8125 3.00271 3.56771 4.00813 2.64062C5.01354 1.71354 6.1775 1.25 7.5 1.25C8.82292 1.25 9.98708 1.71354 10.9925 2.64062C11.9979 3.56771 12.5004 4.8125 12.5 6.375C12.5 7.375 12.125 8.45062 11.375 9.60188C10.625 10.7531 9.48958 12.0004 7.96875 13.3438C7.90625 13.3958 7.83333 13.4375 7.75 13.4688C7.66667 13.5 7.58333 13.5156 7.5 13.5156Z" fill="#F8F8F8"/>
</svg>
