<svg width="20" height="15" viewBox="0 0 20 15" fill="none" xmlns="http://www.w3.org/2000/svg">
<path d="M0.315792 6.81789C0.108356 7.03295 -0.00517263 7.32159 0.000171736 7.62034C0.00551609 7.91909 0.129296 8.20348 0.344291 8.41098L6.8318 14.6705C6.93766 14.7762 7.06352 14.8598 7.20203 14.9164C7.34054 14.973 7.48894 15.0014 7.63856 15.0001C7.78818 14.9987 7.93602 14.9675 8.07347 14.9084C8.21092 14.8493 8.33522 14.7634 8.43911 14.6557C8.543 14.548 8.62441 14.4207 8.67858 14.2812C8.73276 14.1418 8.75861 13.9929 8.75463 13.8433C8.75066 13.6937 8.71693 13.5465 8.65543 13.4101C8.59392 13.2737 8.50586 13.1509 8.3964 13.0489L3.86649 8.67819L18.7868 8.41128C19.0856 8.40593 19.3701 8.28211 19.5776 8.06704C19.7851 7.85197 19.8987 7.56328 19.8933 7.26447C19.888 6.96566 19.7641 6.68121 19.5491 6.47371C19.334 6.2662 19.0453 6.15262 18.7465 6.15797L3.82618 6.42488L8.19686 1.89497C8.39829 1.67881 8.50676 1.39218 8.49891 1.09682C8.49106 0.801465 8.36751 0.521004 8.15489 0.31585C7.94226 0.110696 7.65756 -0.00273967 7.36211 -2.19313e-05C7.06665 0.00269581 6.78409 0.121348 6.57527 0.330379L0.315792 6.81789Z" fill="#FCA311"/>
</svg>
