<svg width="23" height="14" viewBox="0 0 23 14" fill="none" xmlns="http://www.w3.org/2000/svg">
<path d="M1.34167 13.1845C0.958334 13.1845 0.638889 13.1113 0.383333 12.9648C0.127778 12.8183 0 12.6352 0 12.4154V9.4489C0 9.27799 0.0958332 9.12832 0.2875 8.99989C0.479167 8.87195 0.724074 8.78967 1.02222 8.75305L5.43056 8.24032C5.7287 8.2159 6.03239 8.23104 6.34161 8.28573C6.64998 8.34091 6.9 8.42344 7.09167 8.53331L10.0944 10.2546C11.713 9.69306 13.1986 9.02773 14.5513 8.25863C15.9032 7.48953 17.0264 6.6655 17.9208 5.78653L14.8222 3.99198C14.6306 3.8821 14.5079 3.75685 14.4542 3.61622C14.4014 3.47607 14.3963 3.32054 14.4389 3.14963L15.2694 0.585978C15.312 0.415068 15.4505 0.274677 15.6847 0.164806C15.919 0.0549354 16.1852 0 16.4833 0H21.6583C22.0417 0 22.3611 0.0732472 22.6167 0.219742C22.8722 0.366236 23 0.549355 23 0.769096C23 2.34391 22.3875 3.87893 21.1626 5.37415C19.9384 6.86986 18.3199 8.19442 16.307 9.34782C14.2949 10.5017 11.9847 11.4295 9.37633 12.1312C6.76711 12.8334 4.08889 13.1845 1.34167 13.1845ZM19.1347 4.39484C19.4968 3.91873 19.7736 3.43652 19.9653 2.9482C20.1569 2.45989 20.306 1.96547 20.4125 1.46495H17.5694L17.0264 3.18626L19.1347 4.39484ZM7.69861 10.9505L5.55833 9.72357L2.55556 10.0715V11.6829C3.4287 11.6463 4.29674 11.567 5.15967 11.4449C6.02174 11.3228 6.86806 11.158 7.69861 10.9505Z" fill="#18191B"/>
</svg>
