<svg width="411" height="279" viewBox="0 0 411 279" fill="none" xmlns="http://www.w3.org/2000/svg">
<circle cx="3" cy="3" r="3" fill="#FCA311"/>
<circle cx="3" cy="81" r="3" fill="#FCA311"/>
<circle cx="6" cy="159" r="3" fill="#FCA311"/>
<circle cx="6" cy="237" r="3" fill="#FCA311"/>
<circle cx="60" cy="3" r="3" fill="#FCA311"/>
<circle cx="60" cy="81" r="3" fill="#FCA311"/>
<circle cx="63" cy="159" r="3" fill="#FCA311"/>
<circle cx="63" cy="237" r="3" fill="#FCA311"/>
<circle cx="3" cy="3" r="3" transform="matrix(1 0 0 -1 114 6)" fill="#FCA311"/>
<circle cx="3" cy="3" r="3" transform="matrix(1 0 0 -1 114 84)" fill="#FCA311"/>
<circle cx="3" cy="3" r="3" transform="matrix(1 0 0 -1 117 162)" fill="#FCA311"/>
<circle cx="3" cy="3" r="3" transform="matrix(1 0 0 -1 117 240)" fill="#FCA311"/>
<circle cx="3" cy="3" r="3" transform="matrix(1 0 0 -1 285 6)" fill="#FCA311"/>
<circle cx="3" cy="3" r="3" transform="matrix(1 0 0 -1 285 84)" fill="#FCA311"/>
<circle cx="3" cy="3" r="3" transform="matrix(1 0 0 -1 288 162)" fill="#FCA311"/>
<circle cx="3" cy="3" r="3" transform="matrix(1 0 0 -1 288 240)" fill="#FCA311"/>
<circle cx="3" cy="3" r="3" transform="matrix(1 0 0 -1 288 45)" fill="#FCA311"/>
<circle cx="3" cy="3" r="3" transform="matrix(1 0 0 -1 288 123)" fill="#FCA311"/>
<circle cx="3" cy="3" r="3" transform="matrix(1 0 0 -1 291 201)" fill="#FCA311"/>
<circle cx="3" cy="3" r="3" transform="matrix(1 0 0 -1 291 279)" fill="#FCA311"/>
<circle cx="3" cy="42" r="3" fill="#FCA311"/>
<circle cx="3" cy="120" r="3" fill="#FCA311"/>
<circle cx="6" cy="198" r="3" fill="#FCA311"/>
<circle cx="6" cy="276" r="3" fill="#FCA311"/>
<circle cx="60" cy="42" r="3" fill="#FCA311"/>
<circle cx="60" cy="120" r="3" fill="#FCA311"/>
<circle cx="63" cy="198" r="3" fill="#FCA311"/>
<circle cx="63" cy="276" r="3" fill="#FCA311"/>
<circle cx="114" cy="42" r="3" fill="#FCA311"/>
<circle cx="114" cy="120" r="3" fill="#FCA311"/>
<circle cx="117" cy="198" r="3" fill="#FCA311"/>
<circle cx="117" cy="276" r="3" fill="#FCA311"/>
<circle cx="177" cy="42" r="3" fill="#FCA311"/>
<circle cx="177" cy="120" r="3" fill="#FCA311"/>
<circle cx="180" cy="198" r="3" fill="#FCA311"/>
<circle cx="180" cy="276" r="3" fill="#FCA311"/>
<circle cx="231" cy="42" r="3" fill="#FCA311"/>
<circle cx="231" cy="120" r="3" fill="#FCA311"/>
<circle cx="234" cy="198" r="3" fill="#FCA311"/>
<circle cx="234" cy="276" r="3" fill="#FCA311"/>
<circle cx="3" cy="3" r="3" transform="matrix(1 0 0 -1 171 6)" fill="#FCA311"/>
<circle cx="3" cy="3" r="3" transform="matrix(1 0 0 -1 171 84)" fill="#FCA311"/>
<circle cx="3" cy="3" r="3" transform="matrix(1 0 0 -1 174 162)" fill="#FCA311"/>
<circle cx="3" cy="3" r="3" transform="matrix(1 0 0 -1 174 240)" fill="#FCA311"/>
<circle cx="3" cy="3" r="3" transform="matrix(1 0 0 -1 348 6)" fill="#FCA311"/>
<circle cx="3" cy="3" r="3" transform="matrix(1 0 0 -1 348 84)" fill="#FCA311"/>
<circle cx="3" cy="3" r="3" transform="matrix(1 0 0 -1 348 162)" fill="#FCA311"/>
<circle cx="3" cy="3" r="3" transform="matrix(1 0 0 -1 348 240)" fill="#FCA311"/>
<circle cx="3" cy="3" r="3" transform="matrix(1 0 0 -1 348 45)" fill="#FCA311"/>
<circle cx="3" cy="3" r="3" transform="matrix(1 0 0 -1 348 123)" fill="#FCA311"/>
<circle cx="3" cy="3" r="3" transform="matrix(1 0 0 -1 348 201)" fill="#FCA311"/>
<circle cx="3" cy="3" r="3" transform="matrix(1 0 0 -1 351 279)" fill="#FCA311"/>
<circle cx="3" cy="3" r="3" transform="matrix(1 0 0 -1 228 6)" fill="#FCA311"/>
<circle cx="3" cy="3" r="3" transform="matrix(1 0 0 -1 228 84)" fill="#FCA311"/>
<circle cx="3" cy="3" r="3" transform="matrix(1 0 0 -1 231 162)" fill="#FCA311"/>
<circle cx="3" cy="3" r="3" transform="matrix(1 0 0 -1 231 240)" fill="#FCA311"/>
<circle cx="3" cy="3" r="3" transform="matrix(1 0 0 -1 399 6)" fill="#FCA311"/>
<circle cx="3" cy="3" r="3" transform="matrix(1 0 0 -1 399 84)" fill="#FCA311"/>
<circle cx="3" cy="3" r="3" transform="matrix(1 0 0 -1 402 162)" fill="#FCA311"/>
<circle cx="3" cy="3" r="3" transform="matrix(1 0 0 -1 402 240)" fill="#FCA311"/>
<circle cx="3" cy="3" r="3" transform="matrix(1 0 0 -1 402 45)" fill="#FCA311"/>
<circle cx="3" cy="3" r="3" transform="matrix(1 0 0 -1 402 123)" fill="#FCA311"/>
<circle cx="3" cy="3" r="3" transform="matrix(1 0 0 -1 405 201)" fill="#FCA311"/>
<circle cx="3" cy="3" r="3" transform="matrix(1 0 0 -1 405 279)" fill="#FCA311"/>
</svg>
