<svg width="10" height="4" viewBox="0 0 10 4" fill="none" xmlns="http://www.w3.org/2000/svg">
<path d="M9.79214 0.139657C9.72575 0.0954043 9.64676 0.06028 9.55973 0.0363103C9.4727 0.0123407 9.37935 0 9.28507 0C9.19078 0 9.09744 0.0123407 9.0104 0.0363103C8.92337 0.06028 8.84438 0.0954043 8.77799 0.139657L5.50699 2.30204C5.4406 2.34629 5.36161 2.38141 5.27457 2.40538C5.18754 2.42935 5.09419 2.44169 4.99991 2.44169C4.90563 2.44169 4.81228 2.42935 4.72525 2.40538C4.63822 2.38141 4.55923 2.34629 4.49284 2.30204L1.22183 0.139657C1.15544 0.0954043 1.07645 0.06028 0.98942 0.0363103C0.902389 0.0123407 0.80904 0 0.714758 0C0.620476 0 0.527127 0.0123407 0.440097 0.0363103C0.353066 0.06028 0.274075 0.0954043 0.207682 0.139657C0.0746628 0.228117 0 0.347781 0 0.472512C0 0.597243 0.0746628 0.716907 0.207682 0.805367L3.48582 2.97247C3.88756 3.23771 4.43213 3.3867 4.99991 3.3867C5.5677 3.3867 6.11227 3.23771 6.514 2.97247L9.79214 0.805367C9.92516 0.716907 9.99983 0.597243 9.99983 0.472512C9.99983 0.347781 9.92516 0.228117 9.79214 0.139657Z" fill="white"/>
</svg>
