<svg width="151" height="17" viewBox="0 0 151 17" fill="none" xmlns="http://www.w3.org/2000/svg">
<path d="M10.6141 3.26961C11.3013 3.26961 11.9134 3.41456 12.4503 3.70448C12.9872 3.98366 13.4113 4.40779 13.7227 4.97689C14.0341 5.54598 14.1898 6.23856 14.1898 7.05462V12.257H12.7402V7.264C12.7402 6.38352 12.5201 5.71241 12.0798 5.2507C11.6503 4.77824 11.0651 4.54201 10.3242 4.54201C9.56185 4.54201 8.95518 4.78898 8.5042 5.28291C8.05322 5.7661 7.82773 6.46942 7.82773 7.39285V12.257H6.37815V7.264C6.37815 6.38352 6.15803 5.71241 5.71778 5.2507C5.28828 4.77824 4.70308 4.54201 3.96218 4.54201C3.19981 4.54201 2.59314 4.78898 2.14216 5.28291C1.69118 5.7661 1.46569 6.46942 1.46569 7.39285V12.257H0V3.43067H1.46569V4.70308C1.7556 4.24136 2.14216 3.88702 2.62535 3.64005C3.11928 3.39309 3.66153 3.26961 4.2521 3.26961C4.99299 3.26961 5.64799 3.43604 6.21708 3.76891C6.78618 4.10177 7.21031 4.59033 7.48949 5.23459C7.73646 4.61181 8.14449 4.12862 8.71358 3.78501C9.28267 3.44141 9.91619 3.26961 10.6141 3.26961Z" fill="#18191B"/>
<path d="M17.351 1.9972C17.0718 1.9972 16.8356 1.90056 16.6423 1.70728C16.4491 1.514 16.3524 1.27778 16.3524 0.998598C16.3524 0.719421 16.4491 0.483193 16.6423 0.289916C16.8356 0.0966386 17.0718 0 17.351 0C17.6195 0 17.845 0.0966386 18.0275 0.289916C18.2208 0.483193 18.3174 0.719421 18.3174 0.998598C18.3174 1.27778 18.2208 1.514 18.0275 1.70728C17.845 1.90056 17.6195 1.9972 17.351 1.9972ZM18.0597 3.43067V12.257H16.594V3.43067H18.0597Z" fill="#18191B"/>
<path d="M20.0101 7.81162C20.0101 6.90966 20.1926 6.12044 20.5577 5.44397C20.9228 4.75677 21.4221 4.22525 22.0556 3.84944C22.6999 3.47362 23.4193 3.28571 24.2139 3.28571C24.9011 3.28571 25.54 3.44678 26.1305 3.76891C26.7211 4.0803 27.1721 4.49369 27.4835 5.0091V0.338235H28.9653V12.257H27.4835V10.598C27.1936 11.1242 26.7641 11.559 26.195 11.9027C25.6259 12.2355 24.9601 12.402 24.1978 12.402C23.4139 12.402 22.6999 12.2087 22.0556 11.8221C21.4221 11.4356 20.9228 10.8933 20.5577 10.1954C20.1926 9.49743 20.0101 8.70284 20.0101 7.81162ZM27.4835 7.82773C27.4835 7.16199 27.3493 6.58216 27.0808 6.08823C26.8124 5.5943 26.4473 5.21848 25.9856 4.96078C25.5346 4.69234 25.0353 4.55812 24.4877 4.55812C23.9401 4.55812 23.4408 4.68697 22.9898 4.94467C22.5388 5.20238 22.1791 5.57819 21.9107 6.07212C21.6422 6.56606 21.508 7.14589 21.508 7.81162C21.508 8.48809 21.6422 9.07866 21.9107 9.58333C22.1791 10.0773 22.5388 10.4584 22.9898 10.7269C23.4408 10.9846 23.9401 11.1134 24.4877 11.1134C25.0353 11.1134 25.5346 10.9846 25.9856 10.7269C26.4473 10.4584 26.8124 10.0773 27.0808 9.58333C27.3493 9.07866 27.4835 8.49346 27.4835 7.82773Z" fill="#18191B"/>
<path d="M30.8945 7.81162C30.8945 6.90966 31.0771 6.12044 31.4421 5.44397C31.8072 4.75677 32.3065 4.22525 32.94 3.84944C33.5843 3.47362 34.2984 3.28571 35.0822 3.28571C35.8553 3.28571 36.5264 3.45215 37.0955 3.78501C37.6646 4.11788 38.0887 4.53664 38.3679 5.04131V3.43067H39.8497V12.257H38.3679V10.6141C38.078 11.1295 37.6431 11.559 37.0633 11.9027C36.4942 12.2355 35.8285 12.402 35.0661 12.402C34.2822 12.402 33.5736 12.2087 32.94 11.8221C32.3065 11.4356 31.8072 10.8933 31.4421 10.1954C31.0771 9.49743 30.8945 8.70284 30.8945 7.81162ZM38.3679 7.82773C38.3679 7.16199 38.2337 6.58216 37.9653 6.08823C37.6968 5.5943 37.3317 5.21848 36.87 4.96078C36.419 4.69234 35.9197 4.55812 35.3721 4.55812C34.8245 4.55812 34.3252 4.68697 33.8742 4.94467C33.4232 5.20238 33.0635 5.57819 32.7951 6.07212C32.5266 6.56606 32.3924 7.14589 32.3924 7.81162C32.3924 8.48809 32.5266 9.07866 32.7951 9.58333C33.0635 10.0773 33.4232 10.4584 33.8742 10.7269C34.3252 10.9846 34.8245 11.1134 35.3721 11.1134C35.9197 11.1134 36.419 10.9846 36.87 10.7269C37.3317 10.4584 37.6968 10.0773 37.9653 9.58333C38.2337 9.07866 38.3679 8.49346 38.3679 7.82773Z" fill="#18191B"/>
<path d="M45.4512 12.402C44.7747 12.402 44.1681 12.2892 43.6312 12.0637C43.0943 11.8275 42.6702 11.5054 42.3588 11.0973C42.0474 10.6786 41.8756 10.2007 41.8434 9.66386H43.3574C43.4003 10.1041 43.6043 10.4638 43.9694 10.743C44.3452 11.0222 44.8338 11.1618 45.4351 11.1618C45.9935 11.1618 46.4337 11.0383 46.7558 10.7913C47.078 10.5443 47.239 10.233 47.239 9.85714C47.239 9.47058 47.0672 9.18603 46.7236 9.0035C46.38 8.81022 45.8485 8.62231 45.1291 8.43977C44.4741 8.26797 43.9372 8.09617 43.5184 7.92436C43.1104 7.74182 42.7561 7.47875 42.4554 7.13515C42.1655 6.78081 42.0205 6.31909 42.0205 5.75C42.0205 5.29902 42.1548 4.88562 42.4232 4.5098C42.6916 4.13398 43.0728 3.8387 43.5668 3.62395C44.0607 3.39846 44.6244 3.28571 45.2579 3.28571C46.2351 3.28571 47.0243 3.53268 47.6256 4.02661C48.2269 4.52054 48.549 5.19701 48.592 6.05602H47.1263C47.0941 5.5943 46.9062 5.22385 46.5626 4.94467C46.2297 4.6655 45.7787 4.52591 45.2096 4.52591C44.6835 4.52591 44.2647 4.63865 43.9533 4.86414C43.6419 5.08963 43.4862 5.38492 43.4862 5.75C43.4862 6.03991 43.5775 6.28151 43.76 6.47479C43.9533 6.65733 44.1895 6.80765 44.4687 6.92577C44.7586 7.03314 45.1559 7.15662 45.6606 7.29621C46.2941 7.46802 46.8095 7.63982 47.2068 7.81162C47.6041 7.97268 47.9423 8.21965 48.2215 8.55252C48.5114 8.88538 48.6618 9.32025 48.6725 9.85714C48.6725 10.3403 48.5383 10.7752 48.2698 11.1618C48.0014 11.5483 47.6202 11.8543 47.1263 12.0798C46.6431 12.2946 46.0847 12.402 45.4512 12.402Z" fill="#18191B"/>
<path d="M58.7948 1.93277C59.9866 1.93277 61.0228 2.15826 61.9033 2.60924C62.7838 3.06022 63.4603 3.69374 63.9327 4.5098C64.4052 5.31512 64.6414 6.24929 64.6414 7.31232C64.6414 8.16059 64.5018 8.97665 64.2226 9.7605C63.9435 10.5336 63.5354 11.1618 62.9985 11.645C62.4724 12.1281 61.855 12.3697 61.1463 12.3697C60.6094 12.3697 60.196 12.2355 59.9061 11.9671C59.6162 11.6986 59.4498 11.3336 59.4068 10.8718C59.0739 11.3336 58.6498 11.6986 58.1344 11.9671C57.6297 12.2355 57.0929 12.3697 56.5238 12.3697C55.7077 12.3697 55.0634 12.1228 54.591 11.6288C54.1293 11.1242 53.8984 10.4477 53.8984 9.59943C53.8984 8.79411 54.0648 8.04248 54.3977 7.34453C54.7413 6.64659 55.2138 6.08823 55.8151 5.66946C56.4164 5.23996 57.0982 5.02521 57.8606 5.02521C58.8807 5.02521 59.5679 5.41176 59.9222 6.18487L60.0994 5.18627H61.3718L60.5665 9.84103C60.5343 10.045 60.5182 10.233 60.5182 10.4048C60.5182 11.049 60.8027 11.3711 61.3718 11.3711C61.8013 11.3711 62.1717 11.1671 62.4831 10.7591C62.8053 10.3511 63.0469 9.84103 63.2079 9.22899C63.369 8.6062 63.4495 7.99416 63.4495 7.39285C63.4495 5.98622 63.0254 4.89636 62.1771 4.12325C61.3396 3.35014 60.1531 2.96358 58.6176 2.96358C57.3398 2.96358 56.1855 3.27497 55.1547 3.89776C54.1346 4.5098 53.3347 5.3527 52.7549 6.42647C52.175 7.50023 51.8851 8.68674 51.8851 9.98599C51.8744 11.4034 52.2985 12.4932 53.1575 13.2556C54.0165 14.0287 55.2084 14.4153 56.7331 14.4153C57.7425 14.4153 58.6337 14.2327 59.4068 13.8676L59.6001 14.8662C58.6444 15.2635 57.5922 15.4622 56.4432 15.4622C55.2943 15.4622 54.2796 15.2421 53.3991 14.8018C52.5294 14.3723 51.8529 13.7495 51.3697 12.9335C50.8972 12.1281 50.661 11.1886 50.661 10.1148C50.661 8.60083 51.01 7.22105 51.7079 5.97549C52.4059 4.71918 53.3723 3.73132 54.6071 3.0119C55.8527 2.29248 57.2486 1.93277 58.7948 1.93277ZM56.9586 11.2262C57.4418 11.2262 57.8874 11.0866 58.2955 10.8074C58.7035 10.5175 59.0256 10.1309 59.2619 9.64775C59.4981 9.15382 59.6162 8.61694 59.6162 8.03711C59.6162 7.47875 59.4605 7.02777 59.1491 6.68417C58.8485 6.32983 58.419 6.15266 57.8606 6.15266C57.3452 6.15266 56.8888 6.30835 56.4915 6.61974C56.105 6.9204 55.8043 7.32306 55.5896 7.82773C55.3748 8.32166 55.2675 8.83706 55.2675 9.37394C55.2675 9.94304 55.4124 10.394 55.7023 10.7269C55.9922 11.0597 56.411 11.2262 56.9586 11.2262Z" fill="#18191B"/>
<path d="M70.6925 3.28571C71.4549 3.28571 72.1206 3.45215 72.6897 3.78501C73.2695 4.11788 73.699 4.53664 73.9782 5.04131V3.43067H75.46V12.4503C75.46 13.2556 75.2882 13.9696 74.9446 14.5924C74.601 15.2259 74.1071 15.7199 73.4628 16.0742C72.8293 16.4286 72.0884 16.6057 71.2401 16.6057C70.0805 16.6057 69.1141 16.3319 68.341 15.7843C67.5679 15.2367 67.1115 14.4904 66.9719 13.5455H68.4215C68.5826 14.0824 68.9154 14.5119 69.4201 14.834C69.9248 15.1669 70.5314 15.3333 71.2401 15.3333C72.0454 15.3333 72.7004 15.081 73.2051 14.5763C73.7205 14.0717 73.9782 13.363 73.9782 12.4503V10.598C73.6883 11.1134 73.2588 11.5429 72.6897 11.8865C72.1206 12.2302 71.4549 12.402 70.6925 12.402C69.9087 12.402 69.1946 12.2087 68.5504 11.8221C67.9168 11.4356 67.4175 10.8933 67.0525 10.1954C66.6874 9.49743 66.5048 8.70284 66.5048 7.81162C66.5048 6.90966 66.6874 6.12044 67.0525 5.44397C67.4175 4.75677 67.9168 4.22525 68.5504 3.84944C69.1946 3.47362 69.9087 3.28571 70.6925 3.28571ZM73.9782 7.82773C73.9782 7.16199 73.844 6.58216 73.5756 6.08823C73.3071 5.5943 72.942 5.21848 72.4803 4.96078C72.0293 4.69234 71.53 4.55812 70.9824 4.55812C70.4348 4.55812 69.9355 4.68697 69.4845 4.94467C69.0335 5.20238 68.6738 5.57819 68.4054 6.07212C68.137 6.56606 68.0027 7.14589 68.0027 7.81162C68.0027 8.48809 68.137 9.07866 68.4054 9.58333C68.6738 10.0773 69.0335 10.4584 69.4845 10.7269C69.9355 10.9846 70.4348 11.1134 70.9824 11.1134C71.53 11.1134 72.0293 10.9846 72.4803 10.7269C72.942 10.4584 73.3071 10.0773 73.5756 9.58333C73.844 9.07866 73.9782 8.49346 73.9782 7.82773Z" fill="#18191B"/>
<path d="M88.551 3.26961C89.2382 3.26961 89.8503 3.41456 90.3871 3.70448C90.924 3.98366 91.3482 4.40779 91.6596 4.97689C91.9709 5.54598 92.1266 6.23856 92.1266 7.05462V12.257H90.6771V7.264C90.6771 6.38352 90.4569 5.71241 90.0167 5.2507C89.5872 4.77824 89.002 4.54201 88.2611 4.54201C87.4987 4.54201 86.8921 4.78898 86.4411 5.28291C85.9901 5.7661 85.7646 6.46942 85.7646 7.39285V12.257H84.315V7.264C84.315 6.38352 84.0949 5.71241 83.6547 5.2507C83.2252 4.77824 82.64 4.54201 81.8991 4.54201C81.1367 4.54201 80.53 4.78898 80.079 5.28291C79.6281 5.7661 79.4026 6.46942 79.4026 7.39285V12.257H77.9369V3.43067H79.4026V4.70308C79.6925 4.24136 80.079 3.88702 80.5622 3.64005C81.0562 3.39309 81.5984 3.26961 82.189 3.26961C82.9299 3.26961 83.5849 3.43604 84.154 3.76891C84.723 4.10177 85.1472 4.59033 85.4264 5.23459C85.6733 4.61181 86.0814 4.12862 86.6505 3.78501C87.2195 3.44141 87.8531 3.26961 88.551 3.26961Z" fill="#18191B"/>
<path d="M93.9833 7.81162C93.9833 6.90966 94.1658 6.12044 94.5309 5.44397C94.896 4.75677 95.3953 4.22525 96.0288 3.84944C96.6731 3.47362 97.3871 3.28571 98.171 3.28571C98.9441 3.28571 99.6152 3.45215 100.184 3.78501C100.753 4.11788 101.177 4.53664 101.457 5.04131V3.43067H102.938V12.257H101.457V10.6141C101.167 11.1295 100.732 11.559 100.152 11.9027C99.583 12.2355 98.9172 12.402 98.1549 12.402C97.371 12.402 96.6623 12.2087 96.0288 11.8221C95.3953 11.4356 94.896 10.8933 94.5309 10.1954C94.1658 9.49743 93.9833 8.70284 93.9833 7.81162ZM101.457 7.82773C101.457 7.16199 101.322 6.58216 101.054 6.08823C100.786 5.5943 100.42 5.21848 99.9588 4.96078C99.5078 4.69234 99.0085 4.55812 98.4609 4.55812C97.9133 4.55812 97.414 4.68697 96.963 4.94467C96.512 5.20238 96.1523 5.57819 95.8838 6.07212C95.6154 6.56606 95.4812 7.14589 95.4812 7.81162C95.4812 8.48809 95.6154 9.07866 95.8838 9.58333C96.1523 10.0773 96.512 10.4584 96.963 10.7269C97.414 10.9846 97.9133 11.1134 98.4609 11.1134C99.0085 11.1134 99.5078 10.9846 99.9588 10.7269C100.42 10.4584 100.786 10.0773 101.054 9.58333C101.322 9.07866 101.457 8.49346 101.457 7.82773Z" fill="#18191B"/>
<path d="M106.172 1.9972C105.893 1.9972 105.657 1.90056 105.464 1.70728C105.27 1.514 105.174 1.27778 105.174 0.998598C105.174 0.719421 105.27 0.483193 105.464 0.289916C105.657 0.0966386 105.893 0 106.172 0C106.441 0 106.666 0.0966386 106.849 0.289916C107.042 0.483193 107.139 0.719421 107.139 0.998598C107.139 1.27778 107.042 1.514 106.849 1.70728C106.666 1.90056 106.441 1.9972 106.172 1.9972ZM106.881 3.43067V12.257H105.415V3.43067H106.881Z" fill="#18191B"/>
<path d="M110.845 0.338235V12.257H109.379V0.338235H110.845Z" fill="#18191B"/>
<path d="M113.81 12.3536C113.531 12.3536 113.294 12.257 113.101 12.0637C112.908 11.8704 112.811 11.6342 112.811 11.355C112.811 11.0759 112.908 10.8396 113.101 10.6464C113.294 10.4531 113.531 10.3564 113.81 10.3564C114.078 10.3564 114.304 10.4531 114.486 10.6464C114.68 10.8396 114.776 11.0759 114.776 11.355C114.776 11.6342 114.68 11.8704 114.486 12.0637C114.304 12.257 114.078 12.3536 113.81 12.3536Z" fill="#18191B"/>
<path d="M116.177 7.82773C116.177 6.91503 116.359 6.12044 116.724 5.44397C117.09 4.75677 117.594 4.22525 118.238 3.84944C118.893 3.47362 119.64 3.28571 120.477 3.28571C121.562 3.28571 122.453 3.54878 123.151 4.07493C123.86 4.60107 124.327 5.33123 124.552 6.2654H122.974C122.823 5.72852 122.528 5.30438 122.088 4.99299C121.658 4.6816 121.121 4.52591 120.477 4.52591C119.64 4.52591 118.963 4.81582 118.448 5.39565C117.932 5.96475 117.675 6.77544 117.675 7.82773C117.675 8.89075 117.932 9.71218 118.448 10.292C118.963 10.8718 119.64 11.1618 120.477 11.1618C121.121 11.1618 121.658 11.0114 122.088 10.7108C122.517 10.4101 122.813 9.98062 122.974 9.42226H124.552C124.316 10.3242 123.843 11.049 123.135 11.5966C122.426 12.1335 121.54 12.402 120.477 12.402C119.64 12.402 118.893 12.214 118.238 11.8382C117.594 11.4624 117.09 10.9309 116.724 10.2437C116.359 9.55648 116.177 8.75116 116.177 7.82773Z" fill="#18191B"/>
<path d="M130.357 12.402C129.53 12.402 128.779 12.214 128.102 11.8382C127.437 11.4624 126.91 10.9309 126.524 10.2437C126.148 9.54574 125.96 8.74042 125.96 7.82773C125.96 6.92577 126.153 6.13118 126.54 5.44397C126.937 4.74603 127.474 4.21452 128.151 3.84944C128.827 3.47362 129.584 3.28571 130.422 3.28571C131.259 3.28571 132.016 3.47362 132.693 3.84944C133.369 4.21452 133.901 4.74066 134.287 5.42787C134.685 6.11508 134.883 6.91503 134.883 7.82773C134.883 8.74042 134.679 9.54574 134.271 10.2437C133.874 10.9309 133.332 11.4624 132.644 11.8382C131.957 12.214 131.195 12.402 130.357 12.402ZM130.357 11.1134C130.883 11.1134 131.377 10.99 131.839 10.743C132.301 10.496 132.671 10.1256 132.95 9.63165C133.24 9.13772 133.385 8.53641 133.385 7.82773C133.385 7.11904 133.246 6.51774 132.967 6.02381C132.687 5.52987 132.322 5.1648 131.871 4.92857C131.42 4.6816 130.932 4.55812 130.406 4.55812C129.869 4.55812 129.375 4.6816 128.924 4.92857C128.484 5.1648 128.129 5.52987 127.861 6.02381C127.592 6.51774 127.458 7.11904 127.458 7.82773C127.458 8.54715 127.587 9.15382 127.845 9.64775C128.113 10.1417 128.467 10.5121 128.908 10.7591C129.348 10.9953 129.831 11.1134 130.357 11.1134Z" fill="#18191B"/>
<path d="M147.424 3.26961C148.112 3.26961 148.724 3.41456 149.261 3.70448C149.797 3.98366 150.222 4.40779 150.533 4.97689C150.844 5.54598 151 6.23856 151 7.05462V12.257H149.55V7.264C149.55 6.38352 149.33 5.71241 148.89 5.2507C148.461 4.77824 147.875 4.54201 147.135 4.54201C146.372 4.54201 145.765 4.78898 145.314 5.28291C144.864 5.7661 144.638 6.46942 144.638 7.39285V12.257H143.188V7.264C143.188 6.38352 142.968 5.71241 142.528 5.2507C142.099 4.77824 141.513 4.54201 140.772 4.54201C140.01 4.54201 139.403 4.78898 138.952 5.28291C138.501 5.7661 138.276 6.46942 138.276 7.39285V12.257H136.81V3.43067H138.276V4.70308C138.566 4.24136 138.952 3.88702 139.436 3.64005C139.93 3.39309 140.472 3.26961 141.062 3.26961C141.803 3.26961 142.458 3.43604 143.027 3.76891C143.596 4.10177 144.021 4.59033 144.3 5.23459C144.547 4.61181 144.955 4.12862 145.524 3.78501C146.093 3.44141 146.726 3.26961 147.424 3.26961Z" fill="#18191B"/>
</svg>
