<svg width="69" height="18" viewBox="0 0 69 18" fill="none" xmlns="http://www.w3.org/2000/svg">
<path d="M0 17.6051V0H5.9486C7.32973 0 8.4587 0.249291 9.33552 0.747873C10.2181 1.24072 10.8714 1.90837 11.2955 2.7508C11.7195 3.59323 11.9316 4.53309 11.9316 5.57037C11.9316 6.60765 11.7195 7.55037 11.2955 8.39853C10.8771 9.24669 10.2295 9.92293 9.35271 10.4272C8.4759 10.9258 7.35265 11.1751 5.98298 11.1751H1.71925V9.28394H5.91421C6.8598 9.28394 7.61914 9.12061 8.19222 8.79396C8.7653 8.4673 9.18079 8.02603 9.43867 7.47013C9.70229 6.90851 9.8341 6.27526 9.8341 5.57037C9.8341 4.86547 9.70229 4.23508 9.43867 3.67919C9.18079 3.1233 8.76244 2.68776 8.18362 2.37256C7.60481 2.05164 6.83688 1.89117 5.87983 1.89117H2.13187V17.6051H0Z" fill="#18191B"/>
<path d="M17.1194 9.66218V17.6051H15.0907V0H17.1194V6.46437H17.2913C17.6008 5.78241 18.065 5.24084 18.6839 4.83968C19.3086 4.4328 20.1396 4.22935 21.1768 4.22935C22.0766 4.22935 22.8646 4.40987 23.5408 4.77091C24.217 5.12623 24.7414 5.67352 25.1139 6.4128C25.4922 7.14634 25.6813 8.08047 25.6813 9.21517V17.6051H23.6526V9.35271C23.6526 8.30397 23.3803 7.49306 22.8359 6.91998C22.2972 6.34116 21.5493 6.05175 20.5923 6.05175C19.9275 6.05175 19.3315 6.19216 18.8043 6.47297C18.2828 6.75378 17.8702 7.16354 17.5664 7.70223C17.2684 8.24093 17.1194 8.89425 17.1194 9.66218Z" fill="#18191B"/>
<path d="M34.7568 17.8802C33.5647 17.8802 32.5189 17.5965 31.6191 17.0292C30.7251 16.4618 30.026 15.6681 29.5216 14.648C29.0231 13.6279 28.7738 12.4359 28.7738 11.072C28.7738 9.69656 29.0231 8.49595 29.5216 7.47013C30.026 6.44432 30.7251 5.64773 31.6191 5.08038C32.5189 4.51303 33.5647 4.22935 34.7568 4.22935C35.9488 4.22935 36.9918 4.51303 37.8858 5.08038C38.7855 5.64773 39.4847 6.44432 39.9833 7.47013C40.4876 8.49595 40.7397 9.69656 40.7397 11.072C40.7397 12.4359 40.4876 13.6279 39.9833 14.648C39.4847 15.6681 38.7855 16.4618 37.8858 17.0292C36.9918 17.5965 35.9488 17.8802 34.7568 17.8802ZM34.7568 16.0578C35.6622 16.0578 36.4072 15.8257 36.9918 15.3615C37.5763 14.8973 38.009 14.287 38.2898 13.5305C38.5706 12.774 38.711 11.9545 38.711 11.072C38.711 10.1894 38.5706 9.36704 38.2898 8.60484C38.009 7.84264 37.5763 7.22658 36.9918 6.75665C36.4072 6.28672 35.6622 6.05175 34.7568 6.05175C33.8513 6.05175 33.1063 6.28672 32.5217 6.75665C31.9372 7.22658 31.5045 7.84264 31.2237 8.60484C30.9429 9.36704 30.8025 10.1894 30.8025 11.072C30.8025 11.9545 30.9429 12.774 31.2237 13.5305C31.5045 14.287 31.9372 14.8973 32.5217 15.3615C33.1063 15.8257 33.8513 16.0578 34.7568 16.0578Z" fill="#18191B"/>
<path d="M45.8653 9.66218V17.6051H43.8365V4.40128H45.7965V6.46437H45.9684C46.2779 5.79387 46.7478 5.25517 47.3782 4.84828C48.0086 4.43566 48.8224 4.22935 49.8195 4.22935C50.7135 4.22935 51.4958 4.41274 52.1663 4.77951C52.8368 5.14055 53.3583 5.69071 53.7308 6.42999C54.1033 7.16354 54.2896 8.09193 54.2896 9.21517V17.6051H52.2609V9.35271C52.2609 8.31543 51.9915 7.50739 51.4528 6.92857C50.9141 6.34403 50.1748 6.05175 49.235 6.05175C48.5874 6.05175 48.0086 6.19216 47.4985 6.47297C46.9942 6.75378 46.5959 7.16354 46.3037 7.70223C46.0114 8.24093 45.8653 8.89425 45.8653 9.66218Z" fill="#18191B"/>
<path d="M63.5327 17.8802C62.2604 17.8802 61.163 17.5994 60.2403 17.0378C59.3234 16.4704 58.6156 15.6795 58.117 14.6652C57.6242 13.6451 57.3778 12.4588 57.3778 11.1063C57.3778 9.75387 57.6242 8.56186 58.117 7.53031C58.6156 6.49303 59.3091 5.68498 60.1973 5.10617C61.0913 4.52162 62.1344 4.22935 63.3264 4.22935C64.0141 4.22935 64.6932 4.34397 65.3637 4.5732C66.0342 4.80243 66.6445 5.17494 67.1947 5.69071C67.7448 6.20076 68.1832 6.87699 68.5099 7.71943C68.8366 8.56186 68.9999 9.59914 68.9999 10.8313V11.6909H58.8219V9.93726H66.9368C66.9368 9.19225 66.7878 8.52747 66.4898 7.94293C66.1975 7.35838 65.7792 6.89705 65.2347 6.55893C64.696 6.22081 64.0599 6.05175 63.3264 6.05175C62.5183 6.05175 61.8192 6.25233 61.2289 6.65349C60.6443 7.04892 60.1945 7.56469 59.8793 8.20082C59.5641 8.83694 59.4065 9.51891 59.4065 10.2467V11.4158C59.4065 12.413 59.5784 13.2583 59.9223 13.9517C60.2718 14.6394 60.7561 15.1638 61.375 15.5248C61.994 15.8801 62.7132 16.0578 63.5327 16.0578C64.0656 16.0578 64.547 15.9833 64.9768 15.8343C65.4124 15.6795 65.7878 15.4503 66.1029 15.1466C66.4181 14.8371 66.6617 14.4531 66.8336 13.9947L68.7936 14.5448C68.5873 15.2096 68.2406 15.7942 67.7534 16.2985C67.2663 16.7971 66.6646 17.1868 65.9482 17.4676C65.2319 17.7426 64.4267 17.8802 63.5327 17.8802Z" fill="#18191B"/>
</svg>
