<svg width="108" height="40" viewBox="0 0 108 40" fill="none" xmlns="http://www.w3.org/2000/svg">
<path d="M2.16173 0.68855V11.8495H0.704563V0.68855H2.16173Z" fill="#18191B"/>
<path d="M6.10238 4.4996C6.35858 3.99786 6.72154 3.60822 7.19125 3.33066C7.67163 3.05311 8.25343 2.91433 8.93665 2.91433V4.41953H8.55234C6.91903 4.41953 6.10238 5.30558 6.10238 7.07766V11.8495H4.64521V3.07446H6.10238V4.4996Z" fill="#18191B"/>
<path d="M10.0743 7.42994C10.0743 6.53322 10.2558 5.7486 10.6187 5.07606C10.9817 4.39285 11.4781 3.86442 12.1079 3.49079C12.7484 3.11716 13.4583 2.93034 14.2376 2.93034C15.0062 2.93034 15.6734 3.09581 16.2392 3.42674C16.805 3.75767 17.2267 4.174 17.5042 4.67574V3.07446H18.9774V11.8495H17.5042V10.2162C17.216 10.7286 16.7837 11.1556 16.2072 11.4972C15.6414 11.8281 14.9796 11.9936 14.2216 11.9936C13.4423 11.9936 12.7378 11.8014 12.1079 11.4171C11.4781 11.0328 10.9817 10.4937 10.6187 9.79984C10.2558 9.10595 10.0743 8.31598 10.0743 7.42994ZM17.5042 7.44595C17.5042 6.78409 17.3708 6.20763 17.1039 5.71657C16.837 5.22551 16.4741 4.85188 16.0151 4.59567C15.5667 4.32879 15.0703 4.19535 14.5259 4.19535C13.9814 4.19535 13.485 4.32346 13.0367 4.57966C12.5883 4.83587 12.2307 5.2095 11.9638 5.70056C11.6969 6.19162 11.5635 6.76808 11.5635 7.42994C11.5635 8.10248 11.6969 8.68961 11.9638 9.19135C12.2307 9.68241 12.5883 10.0614 13.0367 10.3283C13.485 10.5845 13.9814 10.7126 14.5259 10.7126C15.0703 10.7126 15.5667 10.5845 16.0151 10.3283C16.4741 10.0614 16.837 9.68241 17.1039 9.19135C17.3708 8.68961 17.5042 8.10782 17.5042 7.44595Z" fill="#18191B"/>
<path d="M20.8955 7.42994C20.8955 6.53322 21.0769 5.7486 21.4399 5.07606C21.8029 4.39285 22.2992 3.86442 22.9291 3.49079C23.5696 3.11716 24.2848 2.93034 25.0748 2.93034C25.8327 2.93034 26.4946 3.10115 27.0604 3.44275C27.6368 3.77368 28.0585 4.18468 28.3254 4.67574V3.07446H29.7986V16.0128H28.3254V10.2322C28.0478 10.7232 27.6208 11.1396 27.0444 11.4812C26.4679 11.8228 25.7954 11.9936 25.0268 11.9936C24.2581 11.9936 23.5589 11.8014 22.9291 11.4171C22.2992 11.0328 21.8029 10.4937 21.4399 9.79984C21.0769 9.10595 20.8955 8.31598 20.8955 7.42994ZM28.3254 7.44595C28.3254 6.78409 28.192 6.20763 27.9251 5.71657C27.6582 5.22551 27.2952 4.85188 26.8362 4.59567C26.3878 4.32879 25.8915 4.19535 25.347 4.19535C24.8026 4.19535 24.3062 4.32346 23.8578 4.57966C23.4095 4.83587 23.0518 5.2095 22.785 5.70056C22.5181 6.19162 22.3846 6.76808 22.3846 7.42994C22.3846 8.10248 22.5181 8.68961 22.785 9.19135C23.0518 9.68241 23.4095 10.0614 23.8578 10.3283C24.3062 10.5845 24.8026 10.7126 25.347 10.7126C25.8915 10.7126 26.3878 10.5845 26.8362 10.3283C27.2952 10.0614 27.6582 9.68241 27.9251 9.19135C28.192 8.68961 28.3254 8.10782 28.3254 7.44595Z" fill="#18191B"/>
<path d="M33.7662 9.83186L31.9728 14.1393H30.996L32.165 9.83186H33.7662Z" fill="#18191B"/>
<path d="M41.0239 6.10088C41.4296 6.16493 41.7979 6.33039 42.1288 6.59727C42.4704 6.86416 42.7373 7.19509 42.9295 7.59007C43.1323 7.98505 43.2337 8.40672 43.2337 8.85508C43.2337 9.42087 43.0896 9.93328 42.8013 10.3923C42.5131 10.8407 42.0914 11.1983 41.5363 11.4652C40.9919 11.7214 40.346 11.8495 39.5988 11.8495H35.4355V0.68855H39.4387C40.1966 0.68855 40.8424 0.816653 41.3762 1.07286C41.91 1.31839 42.3103 1.65466 42.5772 2.08166C42.844 2.50867 42.9775 2.98906 42.9775 3.52282C42.9775 4.18468 42.796 4.73445 42.4331 5.17213C42.0808 5.59914 41.6111 5.90872 41.0239 6.10088ZM36.8926 5.5084H39.3426C40.0258 5.5084 40.5542 5.34828 40.9279 5.02802C41.3015 4.70776 41.4883 4.26474 41.4883 3.69896C41.4883 3.13317 41.3015 2.69015 40.9279 2.36989C40.5542 2.04964 40.0151 1.88951 39.3106 1.88951H36.8926V5.5084ZM39.4707 10.6485C40.1966 10.6485 40.7624 10.4777 41.168 10.1361C41.5737 9.7945 41.7765 9.31945 41.7765 8.71097C41.7765 8.0918 41.563 7.60608 41.136 7.2538C40.709 6.89084 40.1379 6.70937 39.4226 6.70937H36.8926V10.6485H39.4707Z" fill="#18191B"/>
<path d="M44.7114 7.42994C44.7114 6.53322 44.8929 5.7486 45.2558 5.07606C45.6188 4.39285 46.1152 3.86442 46.745 3.49079C47.3855 3.11716 48.0954 2.93034 48.8747 2.93034C49.6433 2.93034 50.3105 3.09581 50.8763 3.42674C51.4421 3.75767 51.8638 4.174 52.1413 4.67574V3.07446H53.6145V11.8495H52.1413V10.2162C51.8531 10.7286 51.4207 11.1556 50.8443 11.4972C50.2785 11.8281 49.6166 11.9936 48.8587 11.9936C48.0794 11.9936 47.3748 11.8014 46.745 11.4171C46.1152 11.0328 45.6188 10.4937 45.2558 9.79984C44.8929 9.10595 44.7114 8.31598 44.7114 7.42994ZM52.1413 7.44595C52.1413 6.78409 52.0079 6.20763 51.741 5.71657C51.4741 5.22551 51.1112 4.85188 50.6521 4.59567C50.2038 4.32879 49.7074 4.19535 49.1629 4.19535C48.6185 4.19535 48.1221 4.32346 47.6737 4.57966C47.2254 4.83587 46.8678 5.2095 46.6009 5.70056C46.334 6.19162 46.2006 6.76808 46.2006 7.42994C46.2006 8.10248 46.334 8.68961 46.6009 9.19135C46.8678 9.68241 47.2254 10.0614 47.6737 10.3283C48.1221 10.5845 48.6185 10.7126 49.1629 10.7126C49.7074 10.7126 50.2038 10.5845 50.6521 10.3283C51.1112 10.0614 51.4741 9.68241 51.741 9.19135C52.0079 8.68961 52.1413 8.10782 52.1413 7.44595Z" fill="#18191B"/>
<path d="M59.6959 2.93034C60.4538 2.93034 61.1157 3.09581 61.6814 3.42674C62.2579 3.75767 62.6849 4.174 62.9625 4.67574V3.07446H64.4356V12.0416C64.4356 12.8423 64.2648 13.5522 63.9232 14.1713C63.5816 14.8012 63.0906 15.2922 62.4501 15.6445C61.8202 15.9968 61.0836 16.1729 60.2403 16.1729C59.0874 16.1729 58.1266 15.9007 57.358 15.3563C56.5894 14.8118 56.1357 14.0699 55.9969 13.1305H57.438C57.5982 13.6643 57.9291 14.0913 58.4308 14.4115C58.9326 14.7425 59.5357 14.9079 60.2403 14.9079C61.0409 14.9079 61.6921 14.6571 62.1939 14.1553C62.7063 13.6536 62.9625 12.949 62.9625 12.0416V10.2002C62.6742 10.7126 62.2472 11.1396 61.6814 11.4812C61.1157 11.8228 60.4538 11.9936 59.6959 11.9936C58.9166 11.9936 58.2067 11.8014 57.5662 11.4171C56.9363 11.0328 56.4399 10.4937 56.077 9.79984C55.714 9.10595 55.5325 8.31598 55.5325 7.42994C55.5325 6.53322 55.714 5.7486 56.077 5.07606C56.4399 4.39285 56.9363 3.86442 57.5662 3.49079C58.2067 3.11716 58.9166 2.93034 59.6959 2.93034ZM62.9625 7.44595C62.9625 6.78409 62.829 6.20763 62.5621 5.71657C62.2953 5.22551 61.9323 4.85188 61.4733 4.59567C61.0249 4.32879 60.5285 4.19535 59.9841 4.19535C59.4397 4.19535 58.9433 4.32346 58.4949 4.57966C58.0465 4.83587 57.6889 5.2095 57.422 5.70056C57.1552 6.19162 57.0217 6.76808 57.0217 7.42994C57.0217 8.10248 57.1552 8.68961 57.422 9.19135C57.6889 9.68241 58.0465 10.0614 58.4949 10.3283C58.9433 10.5845 59.4397 10.7126 59.9841 10.7126C60.5285 10.7126 61.0249 10.5845 61.4733 10.3283C61.9323 10.0614 62.2953 9.68241 62.5621 9.19135C62.829 8.68961 62.9625 8.10782 62.9625 7.44595Z" fill="#18191B"/>
<path d="M71.2536 2.91433C71.9155 2.91433 72.5133 3.05845 73.047 3.34668C73.5808 3.62423 73.9971 4.0459 74.296 4.61169C74.6056 5.17747 74.7604 5.86602 74.7604 6.67734V11.8495H73.3193V6.88551C73.3193 6.01014 73.1004 5.34294 72.6627 4.8839C72.225 4.4142 71.6272 4.17934 70.8693 4.17934C70.1007 4.17934 69.4868 4.41953 69.0278 4.89992C68.5795 5.3803 68.3553 6.07953 68.3553 6.9976V11.8495H66.8981V0H68.3553V4.32346C68.6435 3.8751 69.0385 3.52815 69.5402 3.28262C70.0526 3.03709 70.6238 2.91433 71.2536 2.91433Z" fill="#18191B"/>
<path d="M76.5962 7.42994C76.5962 6.53322 76.7777 5.7486 77.1407 5.07606C77.5036 4.39285 78 3.86442 78.6299 3.49079C79.2704 3.11716 79.9803 2.93034 80.7596 2.93034C81.5282 2.93034 82.1954 3.09581 82.7612 3.42674C83.327 3.75767 83.7486 4.174 84.0262 4.67574V3.07446H85.4994V11.8495H84.0262V10.2162C83.738 10.7286 83.3056 11.1556 82.7291 11.4972C82.1634 11.8281 81.5015 11.9936 80.7436 11.9936C79.9643 11.9936 79.2597 11.8014 78.6299 11.4171C78 11.0328 77.5036 10.4937 77.1407 9.79984C76.7777 9.10595 76.5962 8.31598 76.5962 7.42994ZM84.0262 7.44595C84.0262 6.78409 83.8927 6.20763 83.6259 5.71657C83.359 5.22551 82.996 4.85188 82.537 4.59567C82.0886 4.32879 81.5922 4.19535 81.0478 4.19535C80.5034 4.19535 80.007 4.32346 79.5586 4.57966C79.1103 4.83587 78.7526 5.2095 78.4858 5.70056C78.2189 6.19162 78.0854 6.76808 78.0854 7.42994C78.0854 8.10248 78.2189 8.68961 78.4858 9.19135C78.7526 9.68241 79.1103 10.0614 79.5586 10.3283C80.007 10.5845 80.5034 10.7126 81.0478 10.7126C81.5922 10.7126 82.0886 10.5845 82.537 10.3283C82.996 10.0614 83.359 9.68241 83.6259 9.19135C83.8927 8.68961 84.0262 8.10782 84.0262 7.44595Z" fill="#18191B"/>
<path d="M87.4174 7.42994C87.4174 6.53322 87.5989 5.7486 87.9618 5.07606C88.3248 4.39285 88.8212 3.86442 89.451 3.49079C90.0915 3.11716 90.8068 2.93034 91.5967 2.93034C92.2799 2.93034 92.9151 3.09047 93.5023 3.41073C94.0894 3.72031 94.5378 4.1313 94.8473 4.64371V0H96.3205V11.8495H94.8473V10.2002C94.5591 10.7232 94.1321 11.1556 93.5663 11.4972C93.0005 11.8281 92.3387 11.9936 91.5807 11.9936C90.8014 11.9936 90.0915 11.8014 89.451 11.4171C88.8212 11.0328 88.3248 10.4937 87.9618 9.79984C87.5989 9.10595 87.4174 8.31598 87.4174 7.42994ZM94.8473 7.44595C94.8473 6.78409 94.7139 6.20763 94.447 5.71657C94.1801 5.22551 93.8172 4.85188 93.3581 4.59567C92.9098 4.32879 92.4134 4.19535 91.869 4.19535C91.3245 4.19535 90.8281 4.32346 90.3798 4.57966C89.9314 4.83587 89.5738 5.2095 89.3069 5.70056C89.04 6.19162 88.9066 6.76808 88.9066 7.42994C88.9066 8.10248 89.04 8.68961 89.3069 9.19135C89.5738 9.68241 89.9314 10.0614 90.3798 10.3283C90.8281 10.5845 91.3245 10.7126 91.869 10.7126C92.4134 10.7126 92.9098 10.5845 93.3581 10.3283C93.8172 10.0614 94.1801 9.68241 94.447 9.19135C94.7139 8.68961 94.8473 8.10782 94.8473 7.44595Z" fill="#18191B"/>
<path d="M98.2386 7.42994C98.2386 6.53322 98.42 5.7486 98.783 5.07606C99.1459 4.39285 99.6423 3.86442 100.272 3.49079C100.913 3.11716 101.623 2.93034 102.402 2.93034C103.17 2.93034 103.838 3.09581 104.403 3.42674C104.969 3.75767 105.391 4.174 105.668 4.67574V3.07446H107.142V11.8495H105.668V10.2162C105.38 10.7286 104.948 11.1556 104.371 11.4972C103.806 11.8281 103.144 11.9936 102.386 11.9936C101.607 11.9936 100.902 11.8014 100.272 11.4171C99.6423 11.0328 99.1459 10.4937 98.783 9.79984C98.42 9.10595 98.2386 8.31598 98.2386 7.42994ZM105.668 7.44595C105.668 6.78409 105.535 6.20763 105.268 5.71657C105.001 5.22551 104.638 4.85188 104.179 4.59567C103.731 4.32879 103.235 4.19535 102.69 4.19535C102.146 4.19535 101.649 4.32346 101.201 4.57966C100.753 4.83587 100.395 5.2095 100.128 5.70056C99.8612 6.19162 99.7277 6.76808 99.7277 7.42994C99.7277 8.10248 99.8612 8.68961 100.128 9.19135C100.395 9.68241 100.753 10.0614 101.201 10.3283C101.649 10.5845 102.146 10.7126 102.69 10.7126C103.235 10.7126 103.731 10.5845 104.179 10.3283C104.638 10.0614 105.001 9.68241 105.268 9.19135C105.535 8.68961 105.668 8.10782 105.668 7.44595Z" fill="#18191B"/>
<path d="M7.30184 33.3867H2.43395L1.53723 35.8687H0L4.03523 24.7718H5.71657L9.73578 35.8687H8.19856L7.30184 33.3867ZM6.88551 32.2017L4.86789 26.5652L2.85028 32.2017H6.88551Z" fill="#18191B"/>
<path d="M12.9516 24.0192V35.8687H11.4944V24.0192H12.9516Z" fill="#18191B"/>
<path d="M21.52 29.3835V30.6165H15.1308V29.3835H21.52Z" fill="#18191B"/>
<path d="M27.7935 35.9808C27.0569 35.9808 26.395 35.8527 25.8079 35.5965C25.2314 35.3296 24.7777 34.9666 24.4468 34.5076C24.1159 34.0379 23.9451 33.4988 23.9344 32.8903H25.4876C25.541 33.4134 25.7545 33.8564 26.1281 34.2194C26.5124 34.5716 27.0676 34.7478 27.7935 34.7478C28.4874 34.7478 29.0318 34.577 29.4268 34.2354C29.8324 33.8831 30.0353 33.4347 30.0353 32.8903C30.0353 32.4633 29.9178 32.1163 29.683 31.8495C29.4481 31.5826 29.1546 31.3798 28.8023 31.241C28.45 31.1022 27.975 30.9528 27.3771 30.7926C26.6406 30.6005 26.0481 30.4083 25.5997 30.2162C25.162 30.024 24.7831 29.7251 24.4628 29.3194C24.1532 28.9031 23.9984 28.348 23.9984 27.6541C23.9984 27.0456 24.1532 26.5065 24.4628 26.0368C24.7724 25.5671 25.2047 25.2042 25.7598 24.9479C26.3256 24.6917 26.9715 24.5636 27.6974 24.5636C28.7436 24.5636 29.5976 24.8252 30.2594 25.3483C30.932 25.8714 31.311 26.5652 31.3964 27.4299H29.7951C29.7417 27.0029 29.5175 26.6293 29.1225 26.309C28.7276 25.9781 28.2045 25.8126 27.5533 25.8126C26.9448 25.8126 26.4484 25.9728 26.0641 26.293C25.6798 26.6026 25.4876 27.0403 25.4876 27.6061C25.4876 28.0117 25.5997 28.3427 25.8239 28.5989C26.0588 28.8551 26.3416 29.0526 26.6726 29.1913C27.0142 29.3194 27.4892 29.4689 28.0977 29.6397C28.8343 29.8425 29.4268 30.0454 29.8751 30.2482C30.3235 30.4403 30.7078 30.7446 31.0281 31.1609C31.3483 31.5666 31.5084 32.1217 31.5084 32.8262C31.5084 33.3707 31.3643 33.8831 31.0761 34.3635C30.7879 34.8439 30.3609 35.2335 29.7951 35.5324C29.2293 35.8313 28.5621 35.9808 27.7935 35.9808Z" fill="#18191B"/>
<path d="M33.1083 31.4491C33.1083 30.5524 33.2898 29.7678 33.6528 29.0953C34.0157 28.412 34.5121 27.8836 35.142 27.51C35.7825 27.1364 36.4924 26.9495 37.2717 26.9495C38.0403 26.9495 38.7075 27.115 39.2733 27.4459C39.8391 27.7769 40.2607 28.1932 40.5383 28.6949V27.0937H42.0115V35.8687H40.5383V34.2354C40.2501 34.7478 39.8177 35.1748 39.2413 35.5164C38.6755 35.8473 38.0136 36.0128 37.2557 36.0128C36.4764 36.0128 35.7718 35.8206 35.142 35.4363C34.5121 35.052 34.0157 34.5129 33.6528 33.819C33.2898 33.1252 33.1083 32.3352 33.1083 31.4491ZM40.5383 31.4652C40.5383 30.8033 40.4048 30.2268 40.138 29.7358C39.8711 29.2447 39.5081 28.8711 39.0491 28.6149C38.6007 28.348 38.1043 28.2146 37.5599 28.2146C37.0155 28.2146 36.5191 28.3427 36.0707 28.5989C35.6224 28.8551 35.2647 29.2287 34.9979 29.7198C34.731 30.2108 34.5975 30.7873 34.5975 31.4491C34.5975 32.1217 34.731 32.7088 34.9979 33.2106C35.2647 33.7016 35.6224 34.0806 36.0707 34.3475C36.5191 34.6037 37.0155 34.7318 37.5599 34.7318C38.1043 34.7318 38.6007 34.6037 39.0491 34.3475C39.5081 34.0806 39.8711 33.7016 40.138 33.2106C40.4048 32.7088 40.5383 32.127 40.5383 31.4652Z" fill="#18191B"/>
<path d="M52.032 27.0937L46.7478 40H45.2425L46.9719 35.7726L43.4331 27.0937H45.0504L47.8046 34.2033L50.5268 27.0937H52.032Z" fill="#18191B"/>
<path d="M52.9523 31.4491C52.9523 30.5524 53.1338 29.7678 53.4968 29.0953C53.8597 28.412 54.3561 27.8836 54.986 27.51C55.6265 27.1364 56.3417 26.9495 57.1317 26.9495C57.8149 26.9495 58.4501 27.1097 59.0372 27.4299C59.6243 27.7395 60.0727 28.1505 60.3823 28.6629V24.0192H61.8555V35.8687H60.3823V34.2194C60.094 34.7424 59.667 35.1748 59.1013 35.5164C58.5355 35.8473 57.8736 36.0128 57.1157 36.0128C56.3364 36.0128 55.6265 35.8206 54.986 35.4363C54.3561 35.052 53.8597 34.5129 53.4968 33.819C53.1338 33.1252 52.9523 32.3352 52.9523 31.4491ZM60.3823 31.4652C60.3823 30.8033 60.2488 30.2268 59.982 29.7358C59.7151 29.2447 59.3521 28.8711 58.8931 28.6149C58.4447 28.348 57.9483 28.2146 57.4039 28.2146C56.8595 28.2146 56.3631 28.3427 55.9147 28.5989C55.4663 28.8551 55.1087 29.2287 54.8418 29.7198C54.575 30.2108 54.4415 30.7873 54.4415 31.4491C54.4415 32.1217 54.575 32.7088 54.8418 33.2106C55.1087 33.7016 55.4663 34.0806 55.9147 34.3475C56.3631 34.6037 56.8595 34.7318 57.4039 34.7318C57.9483 34.7318 58.4447 34.6037 58.8931 34.3475C59.3521 34.0806 59.7151 33.7016 59.982 33.2106C60.2488 32.7088 60.3823 32.127 60.3823 31.4652Z" fill="#18191B"/>
<path d="M65.0705 25.6685C64.793 25.6685 64.5581 25.5724 64.366 25.3803C64.1738 25.1881 64.0777 24.9533 64.0777 24.6757C64.0777 24.3982 64.1738 24.1633 64.366 23.9712C64.5581 23.779 64.793 23.6829 65.0705 23.6829C65.3374 23.6829 65.5616 23.779 65.7431 23.9712C65.9352 24.1633 66.0313 24.3982 66.0313 24.6757C66.0313 24.9533 65.9352 25.1881 65.7431 25.3803C65.5616 25.5724 65.3374 25.6685 65.0705 25.6685ZM65.7751 27.0937V35.8687H64.3179V27.0937H65.7751Z" fill="#18191B"/>
<path d="M67.7141 31.4491C67.7141 30.5524 67.8956 29.7678 68.2586 29.0953C68.6215 28.412 69.1179 27.8836 69.7478 27.51C70.3883 27.1364 71.0982 26.9495 71.8775 26.9495C72.6461 26.9495 73.3133 27.115 73.8791 27.4459C74.4449 27.7769 74.8665 28.1932 75.1441 28.6949V27.0937H76.6173V35.8687H75.1441V34.2354C74.8558 34.7478 74.4235 35.1748 73.847 35.5164C73.2813 35.8473 72.6194 36.0128 71.8615 36.0128C71.0822 36.0128 70.3776 35.8206 69.7478 35.4363C69.1179 35.052 68.6215 34.5129 68.2586 33.819C67.8956 33.1252 67.7141 32.3352 67.7141 31.4491ZM75.1441 31.4652C75.1441 30.8033 75.0106 30.2268 74.7438 29.7358C74.4769 29.2447 74.1139 28.8711 73.6549 28.6149C73.2065 28.348 72.7101 28.2146 72.1657 28.2146C71.6213 28.2146 71.1249 28.3427 70.6765 28.5989C70.2282 28.8551 69.8705 29.2287 69.6037 29.7198C69.3368 30.2108 69.2033 30.7873 69.2033 31.4491C69.2033 32.1217 69.3368 32.7088 69.6037 33.2106C69.8705 33.7016 70.2282 34.0806 70.6765 34.3475C71.1249 34.6037 71.6213 34.7318 72.1657 34.7318C72.7101 34.7318 73.2065 34.6037 73.6549 34.3475C74.1139 34.0806 74.4769 33.7016 74.7438 33.2106C75.0106 32.7088 75.1441 32.127 75.1441 31.4652Z" fill="#18191B"/>
<path d="M83.4352 26.9335C84.0971 26.9335 84.6949 27.0776 85.2286 27.3659C85.7624 27.6434 86.1787 28.0651 86.4776 28.6309C86.7872 29.1967 86.942 29.8852 86.942 30.6965V35.8687H85.5009V30.9047C85.5009 30.0293 85.282 29.3621 84.8443 28.9031C84.4067 28.4334 83.8088 28.1985 83.0509 28.1985C82.2823 28.1985 81.6685 28.4387 81.2094 28.9191C80.7611 29.3995 80.5369 30.0987 80.5369 31.0168V35.8687H79.0797V24.0192H80.5369V28.3427C80.8251 27.8943 81.2201 27.5474 81.7218 27.3018C82.2343 27.0563 82.8054 26.9335 83.4352 26.9335Z" fill="#18191B"/>
</svg>
