<svg width="25" height="25" viewBox="0 0 25 25" fill="none" xmlns="http://www.w3.org/2000/svg">
<path fill-rule="evenodd" clip-rule="evenodd" d="M3.24539 3.24539C4.62673 1.86404 6.69654 1.33301 9.37467 1.33301H15.6247C18.3028 1.33301 20.3726 1.86404 21.754 3.24539C23.1353 4.62673 23.6663 6.69654 23.6663 9.37467V15.6247C23.6663 18.3028 23.1353 20.3726 21.754 21.754C20.3726 23.1353 18.3028 23.6663 15.6247 23.6663H9.37467C6.69654 23.6663 4.62673 23.1353 3.24539 21.754C1.86404 20.3726 1.33301 18.3028 1.33301 15.6247V9.37467C1.33301 6.69654 1.86404 4.62673 3.24539 3.24539ZM4.30605 4.30605C3.34364 5.26845 2.83301 6.84448 2.83301 9.37467V15.6247C2.83301 18.1549 3.34364 19.7309 4.30605 20.6933C5.26845 21.6557 6.84448 22.1663 9.37467 22.1663H15.6247C18.1549 22.1663 19.7309 21.6557 20.6933 20.6933C21.6557 19.7309 22.1663 18.1549 22.1663 15.6247V9.37467C22.1663 6.84448 21.6557 5.26845 20.6933 4.30605C19.7309 3.34364 18.1549 2.83301 15.6247 2.83301H9.37467C6.84448 2.83301 5.26845 3.34364 4.30605 4.30605Z" fill="white"/>
<path fill-rule="evenodd" clip-rule="evenodd" d="M9.392 9.392C10.2164 8.56762 11.3345 8.10449 12.5003 8.10449C13.0776 8.10449 13.6492 8.21819 14.1825 8.4391C14.7159 8.66002 15.2005 8.98381 15.6086 9.392C16.0168 9.80019 16.3406 10.2848 16.5615 10.8181C16.7825 11.3514 16.8962 11.9231 16.8962 12.5003C16.8962 13.0776 16.7825 13.6492 16.5615 14.1825C16.3406 14.7159 16.0168 15.2005 15.6086 15.6086C15.2005 16.0168 14.7159 16.3406 14.1825 16.5615C13.6492 16.7825 13.0776 16.8962 12.5003 16.8962C11.3345 16.8962 10.2164 16.433 9.392 15.6086C8.56762 14.7843 8.10449 13.6662 8.10449 12.5003C8.10449 11.3345 8.56762 10.2164 9.392 9.392ZM12.5003 9.60449C11.7323 9.60449 10.9957 9.90959 10.4527 10.4527C9.90959 10.9957 9.60449 11.7323 9.60449 12.5003C9.60449 13.2683 9.90959 14.0049 10.4527 14.548C10.9957 15.0911 11.7323 15.3962 12.5003 15.3962C12.8806 15.3962 13.2572 15.3213 13.6085 15.1757C13.9599 15.0302 14.2791 14.8169 14.548 14.548C14.8169 14.2791 15.0302 13.9599 15.1757 13.6085C15.3213 13.2572 15.3962 12.8806 15.3962 12.5003C15.3962 12.12 15.3213 11.7435 15.1757 11.3921C15.0302 11.0408 14.8169 10.7216 14.548 10.4527C14.2791 10.1838 13.9599 9.97045 13.6085 9.82492C13.2572 9.67939 12.8806 9.60449 12.5003 9.60449Z" fill="white"/>
<path fill-rule="evenodd" clip-rule="evenodd" d="M17.3711 7.29199C17.3711 6.73971 17.8188 6.29199 18.3711 6.29199H18.3841C18.9363 6.29199 19.3841 6.73971 19.3841 7.29199C19.3841 7.84428 18.9363 8.29199 18.3841 8.29199H18.3711C17.8188 8.29199 17.3711 7.84428 17.3711 7.29199Z" fill="white"/>
</svg>
