<svg width="84" height="17" viewBox="0 0 84 17" fill="none" xmlns="http://www.w3.org/2000/svg">
<path d="M10.5764 3.25798C11.2612 3.25798 11.871 3.40242 12.406 3.69131C12.941 3.96949 13.3636 4.39212 13.6739 4.95919C13.9842 5.52626 14.1393 6.21638 14.1393 7.02953V12.2134H12.6949V7.23817C12.6949 6.36082 12.4756 5.6921 12.0369 5.23203C11.6089 4.76125 11.0258 4.52586 10.2875 4.52586C9.52785 4.52586 8.92334 4.77195 8.47396 5.26413C8.02458 5.7456 7.79989 6.44641 7.79989 7.36657V12.2134H6.35547V7.23817C6.35547 6.36082 6.13613 5.6921 5.69745 5.23203C5.26948 4.76125 4.68636 4.52586 3.94809 4.52586C3.18843 4.52586 2.58392 4.77195 2.13454 5.26413C1.68516 5.7456 1.46047 6.44641 1.46047 7.36657V12.2134H0V3.41847H1.46047V4.68636C1.74936 4.22628 2.13454 3.8732 2.61601 3.62711C3.10819 3.38102 3.64851 3.25798 4.23698 3.25798C4.97524 3.25798 5.62791 3.42382 6.19498 3.7555C6.76205 4.08719 7.18468 4.57401 7.46286 5.21598C7.70895 4.59541 8.11553 4.11394 8.6826 3.77155C9.24967 3.42917 9.88094 3.25798 10.5764 3.25798Z" fill="#18191B"/>
<path d="M17.2893 1.9901C17.0112 1.9901 16.7758 1.8938 16.5832 1.70121C16.3906 1.50862 16.2943 1.27323 16.2943 0.995048C16.2943 0.716863 16.3906 0.481475 16.5832 0.288885C16.7758 0.096295 17.0112 0 17.2893 0C17.5568 0 17.7815 0.096295 17.9634 0.288885C18.156 0.481475 18.2523 0.716863 18.2523 0.995048C18.2523 1.27323 18.156 1.50862 17.9634 1.70121C17.7815 1.8938 17.5568 1.9901 17.2893 1.9901ZM17.9955 3.41847V12.2134H16.535V3.41847H17.9955Z" fill="#18191B"/>
<path d="M19.939 7.78385C19.939 6.88509 20.1208 6.09868 20.4846 5.42462C20.8484 4.73985 21.3459 4.21023 21.9772 3.83575C22.6192 3.46127 23.336 3.27403 24.1278 3.27403C24.8126 3.27403 25.4492 3.43452 26.0376 3.7555C26.6261 4.06579 27.0755 4.47772 27.3858 4.99129V0.337033H28.8623V12.2134H27.3858V10.5604C27.0969 11.0846 26.6689 11.518 26.1018 11.8603C25.5348 12.192 24.8714 12.3579 24.1117 12.3579C23.3307 12.3579 22.6192 12.1653 21.9772 11.7801C21.3459 11.3949 20.8484 10.8546 20.4846 10.1591C20.1208 9.46366 19.939 8.6719 19.939 7.78385ZM27.3858 7.7999C27.3858 7.13653 27.252 6.55876 26.9845 6.06658C26.7171 5.57441 26.3533 5.19993 25.8932 4.94314C25.4438 4.67566 24.9463 4.54191 24.4006 4.54191C23.855 4.54191 23.3574 4.67031 22.9081 4.92709C22.4587 5.18388 22.1002 5.55836 21.8328 6.05054C21.5653 6.54271 21.4315 7.12048 21.4315 7.78385C21.4315 8.45791 21.5653 9.04638 21.8328 9.54925C22.1002 10.0414 22.4587 10.4213 22.9081 10.6887C23.3574 10.9455 23.855 11.0739 24.4006 11.0739C24.9463 11.0739 25.4438 10.9455 25.8932 10.6887C26.3533 10.4213 26.7171 10.0414 26.9845 9.54925C27.252 9.04638 27.3858 8.46326 27.3858 7.7999Z" fill="#18191B"/>
<path d="M30.7847 7.78385C30.7847 6.88509 30.9666 6.09868 31.3303 5.42462C31.6941 4.73985 32.1917 4.21023 32.8229 3.83575C33.4649 3.46127 34.1764 3.27403 34.9575 3.27403C35.7278 3.27403 36.3965 3.43987 36.9636 3.77155C37.5307 4.10324 37.9533 4.52051 38.2315 5.02339V3.41847H39.708V12.2134H38.2315V10.5764C37.9426 11.09 37.5093 11.518 36.9315 11.8603C36.3644 12.192 35.7011 12.3579 34.9414 12.3579C34.1604 12.3579 33.4542 12.1653 32.8229 11.7801C32.1917 11.3949 31.6941 10.8546 31.3303 10.1591C30.9666 9.46366 30.7847 8.6719 30.7847 7.78385ZM38.2315 7.7999C38.2315 7.13653 38.0978 6.55876 37.8303 6.06658C37.5628 5.57441 37.199 5.19993 36.7389 4.94314C36.2895 4.67566 35.792 4.54191 35.2464 4.54191C34.7007 4.54191 34.2032 4.67031 33.7538 4.92709C33.3044 5.18388 32.946 5.55836 32.6785 6.05054C32.411 6.54271 32.2773 7.12048 32.2773 7.78385C32.2773 8.45791 32.411 9.04638 32.6785 9.54925C32.946 10.0414 33.3044 10.4213 33.7538 10.6887C34.2032 10.9455 34.7007 11.0739 35.2464 11.0739C35.792 11.0739 36.2895 10.9455 36.7389 10.6887C37.199 10.4213 37.5628 10.0414 37.8303 9.54925C38.0978 9.04638 38.2315 8.46326 38.2315 7.7999Z" fill="#18191B"/>
<path d="M45.2896 12.3579C44.6155 12.3579 44.011 12.2455 43.4761 12.0208C42.9411 11.7854 42.5185 11.4645 42.2082 11.0579C41.8979 10.6406 41.7267 10.1645 41.6946 9.6295H43.2032C43.246 10.0682 43.4493 10.4266 43.8131 10.7048C44.1876 10.983 44.6744 11.1221 45.2736 11.1221C45.8299 11.1221 46.2686 10.999 46.5896 10.7529C46.9106 10.5069 47.0711 10.1966 47.0711 9.82209C47.0711 9.43691 46.8999 9.15337 46.5575 8.97148C46.2151 8.77889 45.6855 8.59165 44.9686 8.40976C44.316 8.23857 43.781 8.06738 43.3637 7.89619C42.9571 7.7143 42.6041 7.45216 42.3045 7.10978C42.0156 6.7567 41.8711 6.29662 41.8711 5.72955C41.8711 5.28018 42.0049 4.86825 42.2724 4.49377C42.5399 4.11929 42.9197 3.82505 43.4119 3.61106C43.904 3.38637 44.4658 3.27403 45.097 3.27403C46.0707 3.27403 46.8571 3.52012 47.4563 4.01229C48.0554 4.50447 48.3764 5.17853 48.4192 6.03449H46.9587C46.9266 5.57441 46.7394 5.20528 46.397 4.92709C46.0653 4.64891 45.616 4.50982 45.0489 4.50982C44.5246 4.50982 44.1073 4.62216 43.797 4.84685C43.4868 5.07154 43.3316 5.36577 43.3316 5.72955C43.3316 6.01844 43.4226 6.25917 43.6045 6.45176C43.797 6.63366 44.0324 6.78345 44.3106 6.90114C44.5995 7.00814 44.9954 7.13118 45.4983 7.27027C46.1295 7.44146 46.6431 7.61265 47.039 7.78385C47.4349 7.94434 47.7719 8.19042 48.0501 8.52211C48.339 8.85379 48.4887 9.28712 48.4994 9.82209C48.4994 10.3036 48.3657 10.7369 48.0982 11.1221C47.8307 11.5073 47.4509 11.8122 46.9587 12.0369C46.4773 12.2509 45.9209 12.3579 45.2896 12.3579Z" fill="#18191B"/>
<path d="M55.5942 1.9901C55.316 1.9901 55.0806 1.8938 54.888 1.70121C54.6954 1.50862 54.5991 1.27323 54.5991 0.995048C54.5991 0.716863 54.6954 0.481475 54.888 0.288885C55.0806 0.096295 55.316 0 55.5942 0C55.8617 0 56.0864 0.096295 56.2682 0.288885C56.4608 0.481475 56.5571 0.716863 56.5571 0.995048C56.5571 1.27323 56.4608 1.50862 56.2682 1.70121C56.0864 1.8938 55.8617 1.9901 55.5942 1.9901ZM56.3003 3.41847V12.2134H54.8399V3.41847H56.3003Z" fill="#18191B"/>
<path d="M60.2499 4.84685C60.5067 4.34397 60.8705 3.95344 61.3413 3.67526C61.8228 3.39707 62.4059 3.25798 63.0907 3.25798V4.7666H62.7055C61.0685 4.7666 60.2499 5.65466 60.2499 7.43076V12.2134H58.7895V3.41847H60.2499V4.84685Z" fill="#18191B"/>
<path d="M64.2309 7.78385C64.2309 6.88509 64.4128 6.09868 64.7766 5.42462C65.1403 4.73985 65.6379 4.21023 66.2691 3.83575C66.9111 3.46127 67.6226 3.27403 68.4037 3.27403C69.174 3.27403 69.8427 3.43987 70.4098 3.77155C70.9769 4.10324 71.3995 4.52051 71.6777 5.02339V3.41847H73.1542V12.2134H71.6777V10.5764C71.3888 11.09 70.9555 11.518 70.3777 11.8603C69.8107 12.192 69.1473 12.3579 68.3876 12.3579C67.6066 12.3579 66.9004 12.1653 66.2691 11.7801C65.6379 11.3949 65.1403 10.8546 64.7766 10.1591C64.4128 9.46366 64.2309 8.6719 64.2309 7.78385ZM71.6777 7.7999C71.6777 7.13653 71.544 6.55876 71.2765 6.06658C71.009 5.57441 70.6452 5.19993 70.1851 4.94314C69.7358 4.67566 69.2382 4.54191 68.6926 4.54191C68.1469 4.54191 67.6494 4.67031 67.2 4.92709C66.7506 5.18388 66.3922 5.55836 66.1247 6.05054C65.8572 6.54271 65.7235 7.12048 65.7235 7.78385C65.7235 8.45791 65.8572 9.04638 66.1247 9.54925C66.3922 10.0414 66.7506 10.4213 67.2 10.6887C67.6494 10.9455 68.1469 11.0739 68.6926 11.0739C69.2382 11.0739 69.7358 10.9455 70.1851 10.6887C70.6452 10.4213 71.009 10.0414 71.2765 9.54925C71.544 9.04638 71.6777 8.46326 71.6777 7.7999Z" fill="#18191B"/>
<path d="M75.0766 7.78385C75.0766 6.88509 75.2585 6.09868 75.6223 5.42462C75.9861 4.73985 76.4836 4.21023 77.1149 3.83575C77.7568 3.46127 78.4737 3.27403 79.2654 3.27403C80.0251 3.27403 80.6885 3.44522 81.2555 3.7876C81.8333 4.11929 82.2559 4.53121 82.5234 5.02339V3.41847H83.9999V16.3862H82.5234V10.5925C82.2452 11.0846 81.8173 11.5019 81.2395 11.8443C80.6617 12.1867 79.9877 12.3579 79.2173 12.3579C78.4469 12.3579 77.7461 12.1653 77.1149 11.7801C76.4836 11.3949 75.9861 10.8546 75.6223 10.1591C75.2585 9.46366 75.0766 8.6719 75.0766 7.78385ZM82.5234 7.7999C82.5234 7.13653 82.3897 6.55876 82.1222 6.06658C81.8547 5.57441 81.4909 5.19993 81.0309 4.94314C80.5815 4.67566 80.084 4.54191 79.5383 4.54191C78.9926 4.54191 78.4951 4.67031 78.0457 4.92709C77.5963 5.18388 77.2379 5.55836 76.9704 6.05054C76.7029 6.54271 76.5692 7.12048 76.5692 7.78385C76.5692 8.45791 76.7029 9.04638 76.9704 9.54925C77.2379 10.0414 77.5963 10.4213 78.0457 10.6887C78.4951 10.9455 78.9926 11.0739 79.5383 11.0739C80.084 11.0739 80.5815 10.9455 81.0309 10.6887C81.4909 10.4213 81.8547 10.0414 82.1222 9.54925C82.3897 9.04638 82.5234 8.46326 82.5234 7.7999Z" fill="#18191B"/>
</svg>
