<svg width="23" height="15" viewBox="0 0 23 15" fill="none" xmlns="http://www.w3.org/2000/svg">
<path d="M11.5 7.46448C12.2907 7.46448 12.9677 7.31817 13.5312 7.02557C14.0938 6.73346 14.375 6.38213 14.375 5.97158C14.375 5.56104 14.0938 5.20946 13.5312 4.91685C12.9677 4.62474 12.2907 4.47869 11.5 4.47869C10.7094 4.47869 10.0328 4.62474 9.47027 4.91685C8.90677 5.20946 8.62502 5.56104 8.62502 5.97158C8.62502 6.38213 8.90677 6.73346 9.47027 7.02557C10.0328 7.31817 10.7094 7.46448 11.5 7.46448ZM11.5 12.9509C14.4229 11.5575 16.5912 10.2915 18.0047 9.15294C19.4183 8.01486 20.125 7.00417 20.125 6.12087C20.125 4.76482 19.2923 3.65436 17.6267 2.78948C15.962 1.92509 13.9198 1.4929 11.5 1.4929C9.08023 1.4929 7.03754 1.92509 5.37195 2.78948C3.70732 3.65436 2.87501 4.76482 2.87501 6.12087C2.87501 7.00417 3.58178 8.01486 4.99532 9.15294C6.40887 10.2915 8.5771 11.5575 11.5 12.9509ZM11.5 14.929C7.64273 13.2246 4.76197 11.6414 2.85776 10.1793C0.952585 8.71776 0 7.36495 0 6.12087C0 4.25475 1.15623 2.76808 3.4687 1.66085C5.7802 0.553615 8.45731 0 11.5 0C14.5427 0 17.2199 0.553615 19.5314 1.66085C21.8438 2.76808 23.0001 4.25475 23.0001 6.12087C23.0001 7.36495 22.0479 8.71776 20.1437 10.1793C18.2386 11.6414 15.3573 13.2246 11.5 14.929Z" fill="#18191B"/>
</svg>
