<svg width="10" height="7" viewBox="0 0 10 7" fill="none" xmlns="http://www.w3.org/2000/svg">
<path d="M9.13949 0.288658C9.07752 0.197192 9.0038 0.124593 8.92257 0.0750502C8.84134 0.025507 8.75421 0 8.66621 0C8.57821 0 8.49109 0.025507 8.40986 0.0750502C8.32863 0.124593 8.2549 0.197192 8.19293 0.288658L5.13995 4.7581C5.07798 4.84956 5.00425 4.92216 4.92302 4.9717C4.84179 5.02125 4.75466 5.04676 4.66667 5.04676C4.57867 5.04676 4.49154 5.02125 4.41031 4.9717C4.32908 4.92216 4.25535 4.84956 4.19339 4.7581L1.1404 0.288658C1.07843 0.197192 1.00471 0.124593 0.923475 0.0750502C0.842245 0.025507 0.755117 0 0.667119 0C0.579121 0 0.491994 0.025507 0.410764 0.0750502C0.329534 0.124593 0.255808 0.197192 0.19384 0.288658C0.0696865 0.471497 0 0.718831 0 0.976639C0 1.23445 0.0696865 1.48178 0.19384 1.66462L3.25349 6.14382C3.62845 6.69206 4.13672 7 4.66667 7C5.19661 7 5.70488 6.69206 6.07984 6.14382L9.13949 1.66462C9.26365 1.48178 9.33333 1.23445 9.33333 0.976639C9.33333 0.718831 9.26365 0.471497 9.13949 0.288658Z" fill="white"/>
</svg>
