<svg width="20" height="15" viewBox="0 0 20 15" fill="none" xmlns="http://www.w3.org/2000/svg">
<path d="M0.328362 6.70265C0.117536 6.91432 -0.000592434 7.20105 -4.55009e-05 7.4998C0.000501431 7.79854 0.119679 8.08484 0.331279 8.29573L6.71637 14.6575C6.8205 14.7649 6.94498 14.8505 7.08254 14.9093C7.2201 14.9681 7.368 14.9989 7.5176 14.9999C7.66719 15.001 7.8155 14.9722 7.95385 14.9153C8.09221 14.8584 8.21785 14.7745 8.32344 14.6685C8.42903 14.5625 8.51246 14.4366 8.56885 14.298C8.62525 14.1595 8.65348 14.0111 8.65191 13.8615C8.65033 13.7119 8.61898 13.5641 8.55969 13.4267C8.50039 13.2894 8.41433 13.1652 8.30653 13.0615L3.84814 8.6194L18.7683 8.59208C19.0671 8.59154 19.3534 8.47231 19.5643 8.26064C19.7752 8.04896 19.8934 7.76218 19.8929 7.46338C19.8923 7.16457 19.7731 6.87822 19.5614 6.66732C19.3498 6.45642 19.063 6.33825 18.7642 6.33879L3.84401 6.36611L8.28611 1.90772C8.49095 1.69485 8.60399 1.41005 8.60088 1.11466C8.59777 0.819258 8.47877 0.536899 8.2695 0.328392C8.06023 0.119885 7.77743 0.00191375 7.48202 -0.000112224C7.18662 -0.00213919 6.90223 0.111941 6.69012 0.317558L0.328362 6.70265Z" fill="#E6674C"/>
</svg>
