<svg width="75" height="17" viewBox="0 0 75 17" fill="none" xmlns="http://www.w3.org/2000/svg">
<path d="M10.6247 3.27287C11.3126 3.27287 11.9253 3.41797 12.4627 3.70817C13.0001 3.98763 13.4247 4.41219 13.7364 4.98185C14.0481 5.55151 14.2039 6.24478 14.2039 7.06165V12.2692H12.7529V7.27124C12.7529 6.38988 12.5325 5.71811 12.0919 5.25593C11.6619 4.78301 11.0762 4.54654 10.3345 4.54654C9.57139 4.54654 8.9641 4.79375 8.51267 5.28818C8.06125 5.77185 7.83553 6.47587 7.83553 7.40022V12.2692H6.38451V7.27124C6.38451 6.38988 6.16417 5.71811 5.72348 5.25593C5.29355 4.78301 4.70777 4.54654 3.96613 4.54654C3.203 4.54654 2.59572 4.79375 2.14429 5.28818C1.69286 5.77185 1.46715 6.47587 1.46715 7.40022V12.2692H0V3.43409H1.46715V4.70777C1.75735 4.24559 2.14429 3.89089 2.62797 3.64368C3.12239 3.39647 3.66518 3.27287 4.25634 3.27287C4.99797 3.27287 5.65362 3.43946 6.22328 3.77266C6.79294 4.10586 7.2175 4.59491 7.49696 5.23981C7.74417 4.61641 8.15261 4.13273 8.72227 3.78879C9.29193 3.44484 9.92608 3.27287 10.6247 3.27287Z" fill="#18191B"/>
<path d="M17.3683 1.99919C17.0889 1.99919 16.8524 1.90245 16.6589 1.70898C16.4655 1.51551 16.3687 1.27905 16.3687 0.999594C16.3687 0.720138 16.4655 0.483675 16.6589 0.290205C16.8524 0.0967351 17.0889 0 17.3683 0C17.637 0 17.8628 0.0967351 18.0455 0.290205C18.2389 0.483675 18.3357 0.720138 18.3357 0.999594C18.3357 1.27905 18.2389 1.51551 18.0455 1.70898C17.8628 1.90245 17.637 1.99919 17.3683 1.99919ZM18.0777 3.43409V12.2692H16.6106V3.43409H18.0777Z" fill="#18191B"/>
<path d="M20.0301 7.81941C20.0301 6.91655 20.2128 6.12655 20.5782 5.4494C20.9437 4.76151 21.4435 4.22947 22.0776 3.85328C22.7225 3.47708 23.4426 3.28899 24.238 3.28899C24.9259 3.28899 25.5654 3.45021 26.1566 3.77266C26.7478 4.08436 27.1992 4.49818 27.5109 5.0141V0.338572H28.9942V12.2692H27.5109V10.6086C27.2207 11.1353 26.7907 11.5706 26.2211 11.9145C25.6514 12.2477 24.985 12.4143 24.2219 12.4143C23.4373 12.4143 22.7225 12.2208 22.0776 11.8339C21.4435 11.447 20.9437 10.9042 20.5782 10.2055C20.2128 9.5069 20.0301 8.71152 20.0301 7.81941ZM27.5109 7.83553C27.5109 7.16913 27.3765 6.58872 27.1078 6.0943C26.8391 5.59988 26.4737 5.22369 26.0115 4.96573C25.5601 4.69702 25.0603 4.56267 24.5121 4.56267C23.9639 4.56267 23.4641 4.69164 23.0127 4.9496C22.5613 5.20756 22.2012 5.58376 21.9325 6.07818C21.6638 6.5726 21.5294 7.15301 21.5294 7.81941C21.5294 8.49655 21.6638 9.08771 21.9325 9.59288C22.2012 10.0873 22.5613 10.4689 23.0127 10.7376C23.4641 10.9955 23.9639 11.1245 24.5121 11.1245C25.0603 11.1245 25.5601 10.9955 26.0115 10.7376C26.4737 10.4689 26.8391 10.0873 27.1078 9.59288C27.3765 9.08771 27.5109 8.50193 27.5109 7.83553Z" fill="#18191B"/>
<path d="M30.9253 7.81941C30.9253 6.91655 31.1081 6.12655 31.4735 5.4494C31.8389 4.76151 32.3387 4.22947 32.9729 3.85328C33.6178 3.47708 34.3326 3.28899 35.1172 3.28899C35.8911 3.28899 36.5628 3.45559 37.1325 3.78879C37.7021 4.12198 38.1267 4.54117 38.4062 5.04634V3.43409H39.8894V12.2692H38.4062V10.6247C38.116 11.1406 37.6807 11.5706 37.1002 11.9145C36.5306 12.2477 35.8642 12.4143 35.1011 12.4143C34.3164 12.4143 33.607 12.2208 32.9729 11.8339C32.3387 11.447 31.8389 10.9042 31.4735 10.2055C31.1081 9.5069 30.9253 8.71152 30.9253 7.81941ZM38.4062 7.83553C38.4062 7.16913 38.2718 6.58872 38.0031 6.0943C37.7344 5.59988 37.369 5.22369 36.9068 4.96573C36.4553 4.69702 35.9555 4.56267 35.4074 4.56267C34.8592 4.56267 34.3594 4.69164 33.908 4.9496C33.4566 5.20756 33.0965 5.58376 32.8278 6.07818C32.5591 6.5726 32.4247 7.15301 32.4247 7.81941C32.4247 8.49655 32.5591 9.08771 32.8278 9.59288C33.0965 10.0873 33.4566 10.4689 33.908 10.7376C34.3594 10.9955 34.8592 11.1245 35.4074 11.1245C35.9555 11.1245 36.4553 10.9955 36.9068 10.7376C37.369 10.4689 37.7344 10.0873 38.0031 9.59288C38.2718 9.08771 38.4062 8.50193 38.4062 7.83553Z" fill="#18191B"/>
<path d="M45.4965 12.4143C44.8194 12.4143 44.2121 12.3015 43.6747 12.0757C43.1373 11.8393 42.7127 11.5168 42.401 11.1084C42.0893 10.6892 41.9173 10.2109 41.8851 9.67349H43.4006C43.4436 10.1142 43.6478 10.4742 44.0133 10.7537C44.3895 11.0332 44.8785 11.1729 45.4804 11.1729C46.0393 11.1729 46.48 11.0493 46.8025 10.8021C47.1249 10.5549 47.2861 10.2432 47.2861 9.86696C47.2861 9.48002 47.1142 9.19519 46.7702 9.01247C46.4263 8.819 45.8942 8.63091 45.1741 8.44819C44.5184 8.27621 43.981 8.10424 43.5618 7.93227C43.1534 7.74954 42.7987 7.48621 42.4978 7.14226C42.2075 6.78757 42.0624 6.32539 42.0624 5.75573C42.0624 5.3043 42.1968 4.89049 42.4655 4.5143C42.7342 4.13811 43.1158 3.84253 43.6102 3.62756C44.1046 3.40185 44.6689 3.28899 45.3031 3.28899C46.2812 3.28899 47.0712 3.5362 47.6731 4.03062C48.275 4.52505 48.5974 5.20219 48.6404 6.06206H47.1733C47.141 5.59988 46.9529 5.22906 46.609 4.9496C46.2758 4.67015 45.8244 4.53042 45.2547 4.53042C44.728 4.53042 44.3088 4.64328 43.9971 4.86899C43.6854 5.09471 43.5296 5.39029 43.5296 5.75573C43.5296 6.04593 43.6209 6.28777 43.8037 6.48124C43.9971 6.66396 44.2336 6.81444 44.5131 6.93267C44.8033 7.04015 45.201 7.16376 45.7061 7.30349C46.3403 7.47546 46.8562 7.64744 47.2539 7.81941C47.6516 7.98063 47.9901 8.22785 48.2696 8.56104C48.5598 8.89424 48.7103 9.32955 48.721 9.86696C48.721 10.3506 48.5867 10.7859 48.318 11.1729C48.0493 11.5598 47.6677 11.8662 47.1733 12.0919C46.6896 12.3068 46.1307 12.4143 45.4965 12.4143Z" fill="#18191B"/>
<path d="M59.8207 12.8819V14.2362H51.2436V12.8819H59.8207Z" fill="#18191B"/>
<path d="M63.3741 1.99919C63.0946 1.99919 62.8582 1.90245 62.6647 1.70898C62.4712 1.51551 62.3745 1.27905 62.3745 0.999594C62.3745 0.720138 62.4712 0.483675 62.6647 0.290205C62.8582 0.0967351 63.0946 0 63.3741 0C63.6428 0 63.8685 0.0967351 64.0512 0.290205C64.2447 0.483675 64.3415 0.720138 64.3415 0.999594C64.3415 1.27905 64.2447 1.51551 64.0512 1.70898C63.8685 1.90245 63.6428 1.99919 63.3741 1.99919ZM64.0835 3.43409V12.2692H62.6163V3.43409H64.0835Z" fill="#18191B"/>
<path d="M66.0358 7.81941C66.0358 6.91655 66.2186 6.12655 66.584 5.4494C66.9494 4.76151 67.4492 4.22947 68.0834 3.85328C68.7283 3.47708 69.4484 3.28899 70.2438 3.28899C71.0069 3.28899 71.6733 3.46096 72.243 3.80491C72.8234 4.13811 73.248 4.55192 73.5167 5.04634V3.43409H74.9999V16.4611H73.5167V10.6408C73.2372 11.1353 72.8073 11.5545 72.2269 11.8984C71.6465 12.2423 70.9693 12.4143 70.1954 12.4143C69.4216 12.4143 68.7175 12.2208 68.0834 11.8339C67.4492 11.447 66.9494 10.9042 66.584 10.2055C66.2186 9.5069 66.0358 8.71152 66.0358 7.81941ZM73.5167 7.83553C73.5167 7.16913 73.3823 6.58872 73.1136 6.0943C72.8449 5.59988 72.4795 5.22369 72.0173 4.96573C71.5658 4.69702 71.066 4.56267 70.5179 4.56267C69.9697 4.56267 69.4699 4.69164 69.0185 4.9496C68.5671 5.20756 68.207 5.58376 67.9383 6.07818C67.6696 6.5726 67.5352 7.15301 67.5352 7.81941C67.5352 8.49655 67.6696 9.08771 67.9383 9.59288C68.207 10.0873 68.5671 10.4689 69.0185 10.7376C69.4699 10.9955 69.9697 11.1245 70.5179 11.1245C71.066 11.1245 71.5658 10.9955 72.0173 10.7376C72.4795 10.4689 72.8449 10.0873 73.1136 9.59288C73.3823 9.08771 73.5167 8.50193 73.5167 7.83553Z" fill="#18191B"/>
</svg>
