<svg width="32" height="32" viewBox="0 0 32 32" fill="none" xmlns="http://www.w3.org/2000/svg">
<path fill-rule="evenodd" clip-rule="evenodd" d="M16.5866 8.3199C14.8502 8.3199 13.5466 9.62343 13.5466 11.3599V16.7199H10.88V18.1332H13.5466V27.7332H15.6266V17.9999H19.0849L19.3824 16.5866H15.6266V11.7599C15.6266 11.4786 15.6976 11.0913 16.0078 10.7811C16.318 10.4709 16.7053 10.3999 16.9866 10.3999H19.6266V8.3199H16.5866ZM11.6266 11.3599C11.6266 8.56304 13.7898 6.3999 16.5866 6.3999H20.1866C20.4679 6.3999 20.8553 6.47088 21.1655 6.78108C21.4757 7.09128 21.5466 7.47859 21.5466 7.7599V10.9599C21.5466 11.2412 21.4757 11.6285 21.1655 11.9387C20.8553 12.2489 20.4679 12.3199 20.1866 12.3199H17.5466V14.6666H20.0533C20.559 14.6666 20.9379 14.9395 21.1521 15.2607C21.3473 15.5535 21.4133 15.8842 21.4133 16.1599V16.2599L20.8696 18.8422C20.8309 19.1191 20.6916 19.3162 20.6017 19.4199C20.4882 19.5508 20.3618 19.641 20.2639 19.6998C20.0955 19.8008 19.8227 19.9199 19.52 19.9199H17.5466V29.6532H11.6266V20.0532H10.32C10.0386 20.0532 9.65134 19.9823 9.34114 19.6721C9.03094 19.3619 8.95996 18.9745 8.95996 18.6932V16.1599C8.95996 15.8786 9.03094 15.4913 9.34114 15.1811C9.65134 14.8709 10.0386 14.7999 10.32 14.7999H11.6266V11.3599Z" fill="#18191B"/>
<path fill-rule="evenodd" clip-rule="evenodd" d="M5.51179 5.51203C4.27991 6.74391 3.6263 8.76123 3.6263 11.9999V19.9999C3.6263 23.2385 4.27991 25.2558 5.51179 26.4877C6.74367 27.7196 8.76098 28.3732 11.9996 28.3732H19.9996C23.2383 28.3732 25.2556 27.7196 26.4875 26.4877C27.7194 25.2558 28.373 23.2385 28.373 19.9999V11.9999C28.373 8.76123 27.7194 6.74391 26.4875 5.51203C25.2556 4.28015 23.2383 3.62654 19.9996 3.62654H11.9996C8.76098 3.62654 6.74367 4.28015 5.51179 5.51203ZM4.15414 4.15439C5.92226 2.38627 8.57161 1.70654 11.9996 1.70654H19.9996C23.4277 1.70654 26.077 2.38627 27.8451 4.15439C29.6132 5.92251 30.293 8.57186 30.293 11.9999V19.9999C30.293 23.4279 29.6132 26.0772 27.8451 27.8454C26.077 29.6135 23.4277 30.2932 19.9996 30.2932H11.9996C8.57161 30.2932 5.92226 29.6135 4.15414 27.8454C2.38602 26.0772 1.7063 23.4279 1.7063 19.9999V11.9999C1.7063 8.57186 2.38602 5.92251 4.15414 4.15439Z" fill="#18191B"/>
</svg>
