<svg width="21" height="21" viewBox="0 0 21 21" fill="none" xmlns="http://www.w3.org/2000/svg">
<path d="M10.5 1.75C9.30417 1.75 8.17396 1.97983 7.10938 2.4395C6.04479 2.89916 5.11496 3.52625 4.31988 4.32075C3.52538 5.11525 2.89829 6.04479 2.43863 7.10937C1.97896 8.17396 1.74942 9.30416 1.75 10.5C1.75 11.7104 1.97983 12.8444 2.4395 13.902C2.89917 14.9596 3.52625 15.8853 4.32075 16.6792C5.11525 17.4743 6.0445 18.1014 7.1085 18.5605C8.1725 19.0196 9.303 19.2494 10.5 19.25C11.7104 19.25 12.8444 19.0202 13.902 18.5605C14.9596 18.1008 15.8853 17.4737 16.6793 16.6792C17.4743 15.8847 18.1014 14.9587 18.5605 13.9011C19.0196 12.8435 19.2494 11.7098 19.25 10.5C19.25 9.30416 19.0202 8.17396 18.5605 7.10937C18.1008 6.04479 17.4738 5.11496 16.6793 4.31987C15.8848 3.52537 14.9587 2.89829 13.9011 2.43862C12.8435 1.97896 11.7098 1.74941 10.5 1.75ZM10.5 3.54375C10.8792 4.06875 11.2073 4.61562 11.4844 5.18437C11.7615 5.75312 11.9875 6.35833 12.1625 7H8.8375C9.0125 6.35833 9.23854 5.75312 9.51563 5.18437C9.79271 4.61562 10.1208 4.06875 10.5 3.54375ZM8.225 3.89375C7.9625 4.375 7.73267 4.87462 7.5355 5.39262C7.33834 5.91062 7.17442 6.44641 7.04375 7H4.4625C4.88542 6.27083 5.41421 5.63646 6.04888 5.09687C6.68354 4.55729 7.40892 4.15625 8.225 3.89375ZM12.775 3.89375C13.5917 4.15625 14.3173 4.55729 14.952 5.09687C15.5867 5.63646 16.1152 6.27083 16.5375 7H13.9563C13.825 6.44583 13.6611 5.90975 13.4645 5.39175C13.2679 4.87375 13.0381 4.37442 12.775 3.89375ZM3.71875 8.75H6.69375C6.65 9.04167 6.61704 9.32983 6.59488 9.6145C6.57271 9.89917 6.56192 10.1943 6.5625 10.5C6.5625 10.8062 6.57359 11.1014 6.59575 11.3855C6.61792 11.6696 6.65059 11.9577 6.69375 12.25H3.71875C3.64583 11.9583 3.591 11.6702 3.55425 11.3855C3.5175 11.1008 3.49942 10.8057 3.5 10.5C3.5 10.1937 3.51838 9.89858 3.55513 9.6145C3.59188 9.33041 3.64642 9.04225 3.71875 8.75ZM8.44375 8.75H12.5563C12.6 9.04167 12.633 9.32983 12.6551 9.6145C12.6773 9.89917 12.6881 10.1943 12.6875 10.5C12.6875 10.8062 12.6764 11.1014 12.6543 11.3855C12.6321 11.6696 12.5994 11.9577 12.5563 12.25H8.44375C8.4 11.9583 8.36704 11.6702 8.34488 11.3855C8.32271 11.1008 8.31192 10.8057 8.3125 10.5C8.3125 10.1937 8.32359 9.89858 8.34575 9.6145C8.36792 9.33041 8.40059 9.04225 8.44375 8.75ZM14.3063 8.75H17.2813C17.3542 9.04167 17.409 9.32983 17.4458 9.6145C17.4825 9.89917 17.5006 10.1943 17.5 10.5C17.5 10.8062 17.4816 11.1014 17.4449 11.3855C17.4081 11.6696 17.3536 11.9577 17.2813 12.25H14.3063C14.35 11.9583 14.383 11.6702 14.4051 11.3855C14.4273 11.1008 14.4381 10.8057 14.4375 10.5C14.4375 10.1937 14.4264 9.89858 14.4043 9.6145C14.3821 9.33041 14.3494 9.04225 14.3063 8.75ZM13.9563 14H16.5375C16.1146 14.7292 15.5861 15.3635 14.952 15.9031C14.3179 16.4427 13.5923 16.8437 12.775 17.1062C13.0375 16.625 13.2673 16.1254 13.4645 15.6074C13.6617 15.0894 13.8256 14.5536 13.9563 14ZM8.8375 14H12.1625C11.9875 14.6417 11.7615 15.2469 11.4844 15.8156C11.2073 16.3844 10.8792 16.9312 10.5 17.4562C10.1208 16.9312 9.79271 16.3844 9.51563 15.8156C9.23854 15.2469 9.0125 14.6417 8.8375 14ZM4.4625 14H7.04375C7.175 14.5542 7.33921 15.0902 7.53638 15.6082C7.73354 16.1262 7.96309 16.6256 8.225 17.1062C7.40834 16.8437 6.68267 16.4427 6.048 15.9031C5.41334 15.3635 4.88483 14.7292 4.4625 14Z" fill="#F8F8F8" fill-opacity="0.98"/>
</svg>
