<svg width="32" height="32" viewBox="0 0 32 32" fill="none" xmlns="http://www.w3.org/2000/svg">
<path fill-rule="evenodd" clip-rule="evenodd" d="M4.15414 4.15439C5.92226 2.38627 8.57161 1.70654 11.9996 1.70654H19.9996C23.4276 1.70654 26.077 2.38627 27.8451 4.15439C29.6132 5.92251 30.293 8.57186 30.293 11.9999V19.9999C30.293 23.4279 29.6132 26.0772 27.8451 27.8454C26.077 29.6135 23.4276 30.2932 19.9996 30.2932H11.9996C8.57161 30.2932 5.92226 29.6135 4.15414 27.8454C2.38602 26.0772 1.7063 23.4279 1.7063 19.9999V11.9999C1.7063 8.57186 2.38602 5.92251 4.15414 4.15439ZM5.51179 5.51203C4.27991 6.74391 3.6263 8.76123 3.6263 11.9999V19.9999C3.6263 23.2385 4.27991 25.2558 5.51179 26.4877C6.74367 27.7196 8.76098 28.3732 11.9996 28.3732H19.9996C23.2383 28.3732 25.2556 27.7196 26.4875 26.4877C27.7194 25.2558 28.373 23.2385 28.373 19.9999V11.9999C28.373 8.76123 27.7194 6.74391 26.4875 5.51203C25.2556 4.28015 23.2383 3.62654 19.9996 3.62654H11.9996C8.76098 3.62654 6.74367 4.28015 5.51179 5.51203Z" fill="#18191B"/>
<path fill-rule="evenodd" clip-rule="evenodd" d="M12.0218 12.0215C13.077 10.9663 14.5082 10.3735 16.0004 10.3735C16.7394 10.3735 17.471 10.5191 18.1537 10.8018C18.8363 11.0846 19.4566 11.4991 19.9791 12.0215C20.5016 12.544 20.916 13.1643 21.1988 13.847C21.4816 14.5296 21.6271 15.2613 21.6271 16.0002C21.6271 16.7391 21.4816 17.4708 21.1988 18.1534C20.916 18.8361 20.5016 19.4564 19.9791 19.9789C19.4566 20.5013 18.8363 20.9158 18.1537 21.1986C17.471 21.4813 16.7394 21.6269 16.0004 21.6269C14.5082 21.6269 13.077 21.0341 12.0218 19.9789C10.9666 18.9237 10.3738 17.4925 10.3738 16.0002C10.3738 14.5079 10.9666 13.0768 12.0218 12.0215ZM16.0004 12.2935C15.0174 12.2935 14.0746 12.6841 13.3794 13.3792C12.6843 14.0743 12.2938 15.0171 12.2938 16.0002C12.2938 16.9833 12.6843 17.9261 13.3794 18.6212C14.0746 19.3163 15.0174 19.7069 16.0004 19.7069C16.4872 19.7069 16.9692 19.611 17.4189 19.4247C17.8686 19.2384 18.2773 18.9654 18.6215 18.6212C18.9657 18.277 19.2387 17.8684 19.425 17.4187C19.6112 16.969 19.7071 16.487 19.7071 16.0002C19.7071 15.5134 19.6112 15.0314 19.425 14.5817C19.2387 14.132 18.9657 13.7234 18.6215 13.3792C18.2773 13.035 17.8686 12.762 17.4189 12.5757C16.9692 12.3894 16.4872 12.2935 16.0004 12.2935Z" fill="#18191B"/>
<path fill-rule="evenodd" clip-rule="evenodd" d="M22.2351 9.33347C22.2351 8.62654 22.8082 8.05347 23.5151 8.05347H23.5317C24.2386 8.05347 24.8117 8.62654 24.8117 9.33347C24.8117 10.0404 24.2386 10.6135 23.5317 10.6135H23.5151C22.8082 10.6135 22.2351 10.0404 22.2351 9.33347Z" fill="#18191B"/>
</svg>
