<svg width="77" height="18" viewBox="0 0 77 18" fill="none" xmlns="http://www.w3.org/2000/svg">
<path d="M2.21872 17.4767H0L6.41721 0H8.60179L15.019 17.4767H12.8003L7.57777 2.76486H7.44123L2.21872 17.4767ZM3.03793 10.6498H11.9811V12.5272H3.03793V10.6498Z" fill="#18191B"/>
<path d="M22.4176 17.7497C21.3253 17.7497 20.361 17.4738 19.5247 16.922C18.6884 16.3645 18.0342 15.5794 17.562 14.5667C17.0898 13.5484 16.8537 12.3452 16.8537 10.957C16.8537 9.5803 17.0898 8.38561 17.562 7.37296C18.0342 6.36032 18.6913 5.57808 19.5332 5.02624C20.3752 4.47441 21.348 4.19849 22.4517 4.19849C23.3051 4.19849 23.9792 4.34072 24.4741 4.62517C24.9748 4.90393 25.3559 5.22252 25.6176 5.58092C25.885 5.93364 26.0927 6.22378 26.2406 6.45134H26.4113V0H28.4252V17.4767H26.4795V15.4627H26.2406C26.0927 15.7017 25.8822 16.0032 25.6091 16.3673C25.336 16.7257 24.9463 17.0471 24.44 17.3316C23.9337 17.6103 23.2595 17.7497 22.4176 17.7497ZM22.6906 15.9406C23.4985 15.9406 24.1812 15.7301 24.7387 15.3091C25.2962 14.8825 25.72 14.2937 26.0102 13.5427C26.3003 12.7861 26.4454 11.9128 26.4454 10.9229C26.4454 9.9444 26.3032 9.0882 26.0187 8.35432C25.7343 7.61475 25.3133 7.04016 24.7558 6.63055C24.1982 6.21525 23.5099 6.0076 22.6906 6.0076C21.8373 6.0076 21.1262 6.22663 20.5573 6.66468C19.994 7.09705 19.5702 7.68586 19.2858 8.43112C19.007 9.17069 18.8676 10.0013 18.8676 10.9229C18.8676 11.8559 19.0098 12.7036 19.2943 13.4659C19.5844 14.2225 20.0111 14.8256 20.5743 15.275C21.1432 15.7187 21.8487 15.9406 22.6906 15.9406Z" fill="#18191B"/>
<path d="M32.3933 17.4767V4.36916H34.3389V6.34894H34.4754C34.7144 5.70039 35.1467 5.17416 35.7725 4.77024C36.3983 4.36632 37.1038 4.16436 37.8888 4.16436C38.0368 4.16436 38.2216 4.1672 38.4435 4.17289C38.6654 4.17858 38.8332 4.18712 38.947 4.19849V6.24654C38.8787 6.22947 38.7223 6.20387 38.4777 6.16974C38.2387 6.12991 37.9856 6.11 37.7182 6.11C37.081 6.11 36.5121 6.24369 36.0115 6.51108C35.5165 6.77277 35.124 7.13687 34.8338 7.60337C34.5494 8.06418 34.4072 8.59041 34.4072 9.18207V17.4767H32.3933Z" fill="#18191B"/>
<path d="M46.4309 17.7497C45.1679 17.7497 44.0785 17.471 43.1626 16.9134C42.2523 16.3502 41.5497 15.5651 41.0548 14.5582C40.5655 13.5455 40.3209 12.3679 40.3209 11.0253C40.3209 9.6827 40.5655 8.49939 41.0548 7.47537C41.5497 6.44566 42.2381 5.6435 43.1199 5.06891C44.0074 4.48863 45.0428 4.19849 46.2261 4.19849C46.9088 4.19849 47.5829 4.31227 48.2485 4.53983C48.9142 4.76739 49.52 5.13718 50.0662 5.64919C50.6123 6.15551 51.0475 6.82682 51.3718 7.6631C51.6961 8.49939 51.8582 9.5291 51.8582 10.7522V11.6056H41.7545V9.86475H49.8102C49.8102 9.12518 49.6623 8.46526 49.3664 7.88498C49.0763 7.3047 48.661 6.84673 48.1205 6.51108C47.5858 6.17543 46.9543 6.0076 46.2261 6.0076C45.4239 6.0076 44.7299 6.20672 44.1439 6.60495C43.5636 6.99749 43.117 7.5095 42.8042 8.14098C42.4913 8.77246 42.3348 9.44945 42.3348 10.172V11.3325C42.3348 12.3224 42.5055 13.1615 42.8468 13.8499C43.1939 14.5326 43.6746 15.0531 44.289 15.4115C44.9034 15.7643 45.6174 15.9406 46.4309 15.9406C46.96 15.9406 47.4379 15.8667 47.8645 15.7187C48.2969 15.5651 48.6695 15.3376 48.9824 15.0361C49.2953 14.7289 49.5371 14.3477 49.7078 13.8926L51.6534 14.4387C51.4486 15.0986 51.1044 15.6789 50.6209 16.1796C50.1373 16.6745 49.5399 17.0614 48.8288 17.3401C48.1177 17.6132 47.3184 17.7497 46.4309 17.7497Z" fill="#18191B"/>
<path d="M64.2062 7.3047L62.3971 7.81671C62.2833 7.51519 62.1155 7.22221 61.8936 6.93775C61.6775 6.64761 61.3816 6.40868 61.0062 6.22094C60.6307 6.0332 60.15 5.93933 59.564 5.93933C58.7618 5.93933 58.0934 6.12423 57.5586 6.49401C57.0295 6.85811 56.765 7.32176 56.765 7.88498C56.765 8.38561 56.947 8.781 57.3111 9.07114C57.6752 9.36127 58.2441 9.60306 59.0178 9.79648L60.9635 10.2744C62.1354 10.5588 63.0087 10.994 63.5833 11.58C64.1579 12.1603 64.4452 12.9084 64.4452 13.8243C64.4452 14.5753 64.229 15.2466 63.7966 15.8382C63.3699 16.4299 62.7726 16.8964 62.0046 17.2377C61.2366 17.5791 60.3434 17.7497 59.3251 17.7497C57.9881 17.7497 56.8816 17.4596 56.0055 16.8793C55.1294 16.299 54.5747 15.4514 54.3415 14.3363L56.253 13.8584C56.435 14.5639 56.7792 15.093 57.2855 15.4457C57.7976 15.7984 58.466 15.9748 59.2909 15.9748C60.2296 15.9748 60.9749 15.7756 61.5267 15.3774C62.0842 14.9735 62.363 14.4899 62.363 13.9267C62.363 13.4716 62.2037 13.0904 61.8851 12.7832C61.5665 12.4703 61.0773 12.2371 60.4173 12.0835L58.2328 11.5715C57.0324 11.287 56.1506 10.8461 55.5874 10.2488C55.0298 9.64573 54.7511 8.89193 54.7511 7.98738C54.7511 7.24781 54.9587 6.59357 55.374 6.02467C55.795 5.45577 56.3668 5.00918 57.0893 4.6849C57.8175 4.36063 58.6424 4.19849 59.564 4.19849C60.8611 4.19849 61.8794 4.48294 62.619 5.05185C63.3642 5.62075 63.8933 6.3717 64.2062 7.3047Z" fill="#18191B"/>
<path d="M76.7612 7.3047L74.9521 7.81671C74.8383 7.51519 74.6705 7.22221 74.4486 6.93775C74.2324 6.64761 73.9366 6.40868 73.5611 6.22094C73.1856 6.0332 72.7049 5.93933 72.1189 5.93933C71.3168 5.93933 70.6483 6.12423 70.1136 6.49401C69.5845 6.85811 69.3199 7.32176 69.3199 7.88498C69.3199 8.38561 69.502 8.781 69.8661 9.07114C70.2302 9.36127 70.7991 9.60306 71.5728 9.79648L73.5184 10.2744C74.6904 10.5588 75.5636 10.994 76.1382 11.58C76.7128 12.1603 77.0001 12.9084 77.0001 13.8243C77.0001 14.5753 76.7839 15.2466 76.3516 15.8382C75.9249 16.4299 75.3275 16.8964 74.5595 17.2377C73.7915 17.5791 72.8983 17.7497 71.88 17.7497C70.5431 17.7497 69.4366 17.4596 68.5605 16.8793C67.6843 16.299 67.1297 15.4514 66.8964 14.3363L68.8079 13.8584C68.99 14.5639 69.3342 15.093 69.8405 15.4457C70.3525 15.7984 71.021 15.9748 71.8459 15.9748C72.7845 15.9748 73.5298 15.7756 74.0816 15.3774C74.6392 14.9735 74.9179 14.4899 74.9179 13.9267C74.9179 13.4716 74.7586 13.0904 74.4401 12.7832C74.1215 12.4703 73.6322 12.2371 72.9723 12.0835L70.7877 11.5715C69.5873 11.287 68.7055 10.8461 68.1423 10.2488C67.5848 9.64573 67.306 8.89193 67.306 7.98738C67.306 7.24781 67.5137 6.59357 67.929 6.02467C68.35 5.45577 68.9217 5.00918 69.6442 4.6849C70.3724 4.36063 71.1973 4.19849 72.1189 4.19849C73.416 4.19849 74.4344 4.48294 75.1739 5.05185C75.9192 5.62075 76.4483 6.3717 76.7612 7.3047Z" fill="#18191B"/>
</svg>
