<svg width="25" height="10" viewBox="0 0 25 10" fill="none" xmlns="http://www.w3.org/2000/svg">
<path d="M23.2144 0H1.78572C1.31212 0 0.857914 0.0992203 0.523026 0.275834C0.188138 0.452447 0 0.691986 0 0.941755V8.4758C0 8.72556 0.188138 8.9651 0.523026 9.14172C0.857914 9.31833 1.31212 9.41755 1.78572 9.41755H23.2144C23.688 9.41755 24.1422 9.31833 24.4771 9.14172C24.812 8.9651 25.0001 8.72556 25.0001 8.4758V0.941755C25.0001 0.691986 24.812 0.452447 24.4771 0.275834C24.1422 0.0992203 23.688 0 23.2144 0ZM21.2501 0.941755L12.5001 4.1343L3.75002 0.941755H21.2501ZM1.78572 8.4758V1.37025L11.9911 5.09489C12.1406 5.14958 12.3182 5.17888 12.5001 5.17888C12.682 5.17888 12.8595 5.14958 13.009 5.09489L23.2144 1.37025V8.4758H1.78572Z" fill="#18191B"/>
</svg>
